<!DOCTYPE svg PUBLIC "-//W3C//DTD SVG 20010904//EN" "http://www.w3.org/TR/2001/REC-SVG-20010904/DTD/svg10.dtd">
<svg version="1.0" xmlns="http://www.w3.org/2000/svg" width="1600px" height="900px" viewBox="0 0 16000 9000" preserveAspectRatio="xMidYMid meet">
<g id="layer101" fill="#007236" stroke="none">
 <path d="M4897 8780 c-27 -5 -62 -13 -79 -19 -17 -6 -40 -11 -50 -11 -42 0 -285 -108 -310 -137 -6 -7 -16 -13 -22 -13 -7 0 -23 -11 -36 -25 -13 -14 -27 -25 -31 -25 -22 0 -176 -161 -244 -255 -47 -64 -116 -207 -143 -295 -43 -139 -52 -217 -52 -448 l0 -208 -52 -73 c-101 -141 -227 -352 -299 -502 -56 -116 -79 -166 -79 -173 0 -4 -11 -32 -25 -62 -14 -30 -25 -59 -25 -64 0 -5 -11 -38 -24 -72 -32 -86 -68 -204 -76 -253 -4 -22 -17 -76 -28 -120 -11 -44 -31 -145 -44 -225 -21 -133 -23 -175 -23 -510 0 -333 2 -377 23 -505 25 -156 61 -316 99 -445 36 -120 43 -142 119 -342 13 -35 94 -213 113 -248 20 -37 76 -138 90 -162 104 -174 180 -288 192 -288 5 0 9 -6 9 -13 0 -8 11 -24 25 -37 14 -13 25 -29 25 -37 0 -7 4 -13 8 -13 5 0 20 -16 35 -36 53 -76 271 -305 380 -402 44 -39 46 -49 10 -63 -15 -6 -30 -14 -33 -18 -3 -4 -26 -20 -52 -36 -27 -17 -48 -33 -48 -37 0 -5 -5 -8 -11 -8 -30 0 -211 -175 -363 -350 -7 -8 -42 -60 -78 -115 -132 -201 -212 -389 -273 -645 -26 -108 -28 -132 -33 -402 -4 -256 -3 -290 12 -313 l16 -25 201 0 200 0 -7 -22 c-6 -21 -25 -307 -26 -408 0 -25 3 -69 7 -98 6 -42 13 -57 37 -74 30 -20 31 -21 816 -19 862 2 936 6 1132 60 142 39 279 91 355 134 11 6 40 21 65 34 62 33 78 42 144 88 32 22 65 45 75 50 80 49 337 306 386 386 5 10 28 43 50 75 46 66 55 82 88 144 13 25 28 54 34 65 52 92 98 222 149 420 39 149 44 183 44 277 l0 106 78 17 c42 9 109 26 147 37 39 11 86 24 105 28 150 34 504 186 700 300 36 21 79 46 97 55 18 9 37 23 44 31 6 8 15 14 20 14 8 0 133 85 184 124 186 145 236 188 365 316 123 124 202 211 242 266 17 24 35 44 40 44 4 0 8 6 8 13 0 8 11 24 25 37 14 13 25 29 25 37 0 7 4 13 9 13 4 0 26 26 47 58 42 62 45 67 89 138 16 27 32 51 35 54 4 3 13 19 21 35 9 17 30 57 49 90 47 85 45 80 93 185 131 280 220 575 279 920 21 124 23 164 23 505 0 339 -2 382 -23 515 -13 80 -33 181 -44 225 -11 44 -24 98 -28 120 -8 49 -44 168 -76 253 -13 34 -24 67 -24 72 0 5 -11 34 -25 64 -14 30 -25 58 -25 62 0 7 -23 57 -79 173 -72 150 -198 361 -298 502 l-53 73 0 208 c0 230 -9 308 -52 447 -27 88 -97 234 -143 296 -68 94 -222 255 -244 255 -4 0 -18 11 -31 25 -13 14 -29 25 -36 25 -6 0 -16 6 -22 13 -24 29 -267 137 -309 137 -10 0 -40 8 -68 18 -47 16 -163 17 -1760 18 -940 1 -1732 -2 -1758 -6z"/>
 </g>
<g id="layer102" fill="#009655" stroke="none">
 <path d="M4897 8780 c-27 -5 -62 -13 -79 -19 -17 -6 -40 -11 -50 -11 -42 0 -285 -108 -310 -137 -6 -7 -16 -13 -22 -13 -7 0 -23 -11 -36 -25 -13 -14 -27 -25 -31 -25 -22 0 -176 -161 -244 -255 -47 -64 -116 -207 -143 -295 -43 -139 -52 -217 -52 -448 l0 -208 -52 -73 c-101 -141 -227 -352 -299 -502 -56 -116 -79 -166 -79 -173 0 -4 -11 -32 -25 -62 -14 -30 -25 -59 -25 -64 0 -5 -11 -38 -24 -72 -32 -86 -68 -204 -76 -253 -4 -22 -17 -76 -28 -120 -11 -44 -31 -145 -44 -225 -21 -133 -23 -175 -23 -510 0 -333 2 -377 23 -505 25 -156 61 -316 99 -445 36 -120 43 -142 119 -342 13 -35 94 -213 113 -248 20 -37 76 -138 90 -162 104 -174 180 -288 192 -288 5 0 9 -6 9 -13 0 -8 11 -24 25 -37 14 -13 25 -29 25 -37 0 -7 4 -13 8 -13 5 0 20 -16 35 -36 71 -101 407 -444 434 -444 5 0 52 -34 104 -76 135 -108 353 -251 507 -331 l132 -70 -42 -12 c-75 -22 -280 -127 -383 -196 -282 -189 -496 -434 -645 -740 -77 -159 -119 -276 -149 -420 -12 -55 -27 -115 -33 -134 -6 -19 -15 -112 -20 -205 -5 -94 -10 -188 -12 -209 -2 -20 1 -54 5 -75 5 -20 11 -49 14 -63 2 -15 17 -34 31 -44 25 -16 82 -17 813 -16 619 2 811 5 906 16 118 15 273 52 390 95 54 19 269 123 320 153 39 24 110 72 136 92 15 11 39 29 55 40 77 55 264 242 319 319 11 16 29 40 40 55 20 26 68 97 92 136 30 51 134 266 153 320 19 52 66 223 100 363 5 23 10 89 10 146 l0 104 78 17 c42 9 109 26 147 37 39 11 86 24 105 28 150 34 504 186 700 300 36 21 79 46 97 55 18 9 37 23 44 31 6 8 15 14 20 14 8 0 133 85 184 124 186 145 236 188 365 316 123 124 202 211 242 266 17 24 35 44 40 44 4 0 8 6 8 13 0 8 11 24 25 37 14 13 25 29 25 37 0 7 4 13 9 13 4 0 26 26 47 58 42 62 45 67 89 138 16 27 32 51 35 54 4 3 13 19 21 35 9 17 30 57 49 90 47 85 45 80 93 185 131 280 220 575 279 920 21 124 23 164 23 505 0 339 -2 382 -23 515 -13 80 -33 181 -44 225 -11 44 -24 98 -28 120 -8 49 -44 168 -76 253 -13 34 -24 67 -24 72 0 5 -11 34 -25 64 -14 30 -25 58 -25 62 0 7 -23 57 -79 173 -72 150 -198 361 -298 502 l-53 73 0 208 c0 230 -9 308 -52 447 -27 88 -97 234 -143 296 -68 94 -222 255 -244 255 -4 0 -18 11 -31 25 -13 14 -29 25 -36 25 -6 0 -16 6 -22 13 -24 29 -267 137 -309 137 -10 0 -40 8 -68 18 -47 16 -163 17 -1760 18 -940 1 -1732 -2 -1758 -6z"/>
 </g>
<g id="layer103" fill="#ff4343" stroke="none">
 <path d="M4897 8780 c-27 -5 -62 -13 -79 -19 -17 -6 -40 -11 -50 -11 -42 0 -285 -108 -310 -137 -6 -7 -16 -13 -22 -13 -7 0 -23 -11 -36 -25 -13 -14 -27 -25 -31 -25 -22 0 -176 -161 -244 -255 -47 -64 -116 -207 -143 -295 -43 -139 -52 -217 -52 -448 l0 -208 -52 -73 c-101 -141 -227 -352 -299 -502 -56 -116 -79 -166 -79 -173 0 -4 -11 -32 -25 -62 -14 -30 -25 -59 -25 -64 0 -5 -11 -38 -24 -72 -32 -86 -68 -204 -76 -253 -4 -22 -17 -76 -28 -120 -11 -44 -31 -145 -44 -225 -21 -133 -23 -175 -23 -510 0 -333 2 -377 23 -505 25 -156 61 -316 99 -445 36 -120 43 -142 119 -342 13 -35 94 -213 113 -248 20 -37 76 -138 90 -162 104 -174 180 -288 192 -288 5 0 9 -6 9 -13 0 -8 11 -24 25 -37 14 -13 25 -29 25 -37 0 -7 4 -13 8 -13 5 0 20 -16 35 -36 71 -101 407 -444 434 -444 5 0 52 -34 104 -76 133 -107 352 -250 502 -329 l128 -67 112 31 c242 66 220 65 1120 68 l818 4 29 -30 30 -29 0 -162 0 -162 23 6 c12 3 49 11 82 17 65 13 203 51 275 76 25 9 65 21 90 28 122 35 400 162 560 255 36 21 79 46 97 55 18 9 37 23 44 31 6 8 15 14 20 14 8 0 133 85 184 124 186 145 236 188 365 316 123 124 202 211 242 266 17 24 35 44 40 44 4 0 8 6 8 13 0 8 11 24 25 37 14 13 25 29 25 37 0 7 4 13 9 13 4 0 26 26 47 58 42 62 45 67 89 138 16 27 32 51 35 54 4 3 13 19 21 35 9 17 30 57 49 90 47 85 45 80 93 185 131 280 220 575 279 920 21 124 23 164 23 505 0 339 -2 382 -23 515 -13 80 -33 181 -44 225 -11 44 -24 98 -28 120 -8 49 -44 168 -76 253 -13 34 -24 67 -24 72 0 5 -11 34 -25 64 -14 30 -25 58 -25 62 0 7 -23 57 -79 173 -72 150 -198 361 -298 502 l-53 73 0 208 c0 230 -9 308 -52 447 -27 88 -97 234 -143 296 -68 94 -222 255 -244 255 -4 0 -18 11 -31 25 -13 14 -29 25 -36 25 -6 0 -16 6 -22 13 -24 29 -267 137 -309 137 -10 0 -40 8 -68 18 -47 16 -163 17 -1760 18 -940 1 -1732 -2 -1758 -6z"/>
 </g>
<g id="layer104" fill="#f4b66c" stroke="none">
 <path d="M8280 6335 c-489 -60 -959 -241 -1347 -518 -103 -73 -102 -72 -253 -203 -305 -266 -582 -656 -746 -1051 -206 -497 -269 -1064 -178 -1603 22 -132 72 -335 107 -435 14 -40 14 -40 103 -63 207 -52 348 -66 659 -66 320 0 443 13 690 73 773 189 1436 690 1835 1385 330 574 451 1262 340 1921 -23 130 -77 350 -107 430 l-18 50 -88 22 c-193 49 -346 66 -622 69 -181 2 -295 -1 -375 -11z"/>
 </g>

</svg>