<!DOCTYPE svg PUBLIC "-//W3C//DTD SVG 20010904//EN" "http://www.w3.org/TR/2001/REC-SVG-20010904/DTD/svg10.dtd">
<svg version="1.0" xmlns="http://www.w3.org/2000/svg" width="1600px" height="900px" viewBox="0 0 16000 9000" preserveAspectRatio="xMidYMid meet">
<g id="layer101" fill="#007236" stroke="none">
 <path d="M6605 8664 c-71 -8 -179 -24 -240 -35 -60 -12 -132 -25 -158 -30 -27 -4 -81 -17 -120 -29 -144 -42 -243 -72 -282 -87 -22 -9 -62 -23 -90 -33 -106 -38 -401 -181 -505 -245 -30 -19 -66 -40 -80 -47 -52 -27 -280 -189 -280 -199 0 -4 -6 -9 -14 -11 -42 -9 -360 -308 -499 -468 -27 -30 -57 -65 -68 -76 -10 -12 -19 -25 -19 -29 0 -4 -10 -18 -22 -30 -21 -20 -92 -114 -128 -169 -8 -13 -33 -50 -55 -82 -21 -32 -47 -72 -56 -89 -9 -16 -26 -46 -37 -65 -53 -89 -97 -175 -149 -290 -30 -69 -66 -149 -79 -178 -13 -29 -24 -57 -24 -62 0 -5 -11 -38 -24 -72 -81 -216 -162 -590 -177 -822 -11 -169 -10 -484 1 -656 11 -180 70 -495 122 -655 11 -33 26 -80 33 -105 7 -25 27 -83 45 -130 17 -47 38 -103 47 -125 8 -22 22 -56 32 -75 10 -19 43 -87 75 -150 82 -167 144 -270 253 -429 55 -80 61 -88 119 -161 78 -98 172 -208 206 -242 16 -14 28 -30 28 -35 0 -8 -49 -41 -85 -56 -11 -4 -22 -11 -25 -15 -3 -5 -26 -21 -52 -37 -27 -17 -48 -33 -48 -37 0 -5 -5 -8 -11 -8 -30 0 -211 -175 -363 -350 -7 -8 -42 -60 -78 -115 -132 -201 -212 -389 -273 -645 -26 -108 -28 -132 -33 -402 -4 -256 -3 -290 12 -313 l16 -25 201 0 200 0 -7 -22 c-6 -21 -25 -307 -26 -408 0 -25 3 -69 7 -98 6 -42 13 -57 37 -74 30 -20 31 -21 816 -19 862 2 936 6 1132 60 142 39 279 91 355 134 11 6 40 21 65 34 62 33 78 42 144 88 32 22 65 45 75 50 80 49 337 306 386 386 5 10 28 43 50 75 46 66 55 82 88 144 13 25 28 54 34 65 50 88 98 222 142 391 l36 142 60 6 c261 28 575 97 785 171 36 13 74 25 85 28 89 24 474 207 590 281 34 22 217 143 250 166 75 51 226 172 281 225 153 147 249 243 294 296 29 35 59 69 64 74 11 10 19 21 121 155 59 76 172 246 206 308 13 23 38 68 56 100 70 126 203 413 203 438 0 5 11 36 24 69 25 65 72 215 80 255 2 14 13 59 24 100 32 119 70 353 82 500 23 302 5 717 -41 954 -42 216 -134 541 -160 570 -5 6 -9 18 -9 28 0 9 -11 42 -25 72 -14 30 -25 57 -25 60 0 7 -97 214 -112 241 -7 11 -23 41 -37 66 -63 114 -91 161 -126 214 -11 16 -24 37 -30 47 -18 31 -98 143 -124 174 -14 18 -35 44 -46 58 -105 139 -319 361 -465 485 -47 40 -95 81 -106 92 -12 10 -27 19 -32 19 -6 0 -15 6 -19 13 -10 17 -180 137 -193 137 -6 0 -10 4 -10 8 0 5 -21 21 -47 36 -27 15 -73 43 -103 61 -30 19 -62 37 -70 40 -8 4 -22 11 -30 16 -25 15 -171 86 -250 122 -139 63 -148 67 -157 67 -4 0 -35 11 -68 24 -104 41 -353 114 -428 126 -29 4 -99 17 -157 28 -181 36 -286 44 -575 48 -197 2 -319 -2 -410 -12z"/>
 </g>
<g id="layer102" fill="#009655" stroke="none">
 <path d="M6605 8664 c-71 -8 -179 -24 -240 -35 -60 -12 -132 -25 -158 -30 -27 -4 -81 -17 -120 -29 -144 -42 -243 -72 -282 -87 -22 -9 -62 -23 -90 -33 -106 -38 -401 -181 -505 -245 -30 -19 -66 -40 -80 -47 -52 -27 -280 -189 -280 -199 0 -4 -6 -9 -14 -11 -42 -9 -360 -308 -499 -468 -27 -30 -57 -65 -68 -76 -10 -12 -19 -25 -19 -29 0 -4 -10 -18 -22 -30 -21 -20 -92 -114 -128 -169 -8 -13 -33 -50 -55 -82 -21 -32 -47 -72 -56 -89 -9 -16 -26 -46 -37 -65 -53 -89 -97 -175 -149 -290 -30 -69 -66 -149 -79 -178 -13 -29 -24 -57 -24 -62 0 -5 -11 -38 -24 -72 -81 -216 -162 -590 -177 -822 -11 -169 -10 -484 1 -656 11 -180 70 -495 122 -655 11 -33 26 -80 33 -105 7 -25 27 -83 45 -130 17 -47 38 -103 47 -125 8 -22 22 -56 32 -75 10 -19 43 -87 75 -150 82 -167 144 -270 253 -429 29 -42 59 -85 68 -96 130 -168 284 -345 301 -345 3 0 53 -45 110 -99 125 -119 280 -244 428 -346 l108 -74 -43 -18 c-91 -36 -238 -114 -334 -179 -282 -187 -496 -433 -645 -739 -77 -159 -119 -276 -149 -420 -12 -55 -27 -115 -33 -134 -6 -19 -15 -112 -20 -205 -5 -94 -10 -188 -12 -209 -2 -20 1 -54 5 -75 5 -20 11 -49 14 -63 2 -15 17 -34 31 -44 25 -16 82 -17 813 -16 619 2 811 5 906 16 118 15 273 52 390 95 54 19 269 123 320 153 39 24 110 72 136 92 15 11 39 29 55 40 77 55 264 242 319 319 11 16 29 40 40 55 20 26 68 97 92 136 30 50 134 266 153 320 13 33 39 124 59 201 l36 142 60 6 c261 28 575 97 785 171 36 13 74 25 85 28 89 24 474 207 590 281 34 22 217 143 250 166 75 51 226 172 281 225 153 147 249 243 294 296 29 35 59 69 64 74 11 10 19 21 121 155 59 76 172 246 206 308 13 23 38 68 56 100 70 126 203 413 203 438 0 5 11 36 24 69 25 65 72 215 80 255 2 14 13 59 24 100 32 119 70 353 82 500 23 302 5 717 -41 954 -42 216 -134 541 -160 570 -5 6 -9 18 -9 28 0 9 -11 42 -25 72 -14 30 -25 57 -25 60 0 7 -97 214 -112 241 -7 11 -23 41 -37 66 -63 114 -91 161 -126 214 -11 16 -24 37 -30 47 -18 31 -98 143 -124 174 -14 18 -35 44 -46 58 -105 139 -319 361 -465 485 -47 40 -95 81 -106 92 -12 10 -27 19 -32 19 -6 0 -15 6 -19 13 -10 17 -180 137 -193 137 -6 0 -10 4 -10 8 0 5 -21 21 -47 36 -27 15 -73 43 -103 61 -30 19 -62 37 -70 40 -8 4 -22 11 -30 16 -25 15 -171 86 -250 122 -139 63 -148 67 -157 67 -4 0 -35 11 -68 24 -104 41 -353 114 -428 126 -29 4 -99 17 -157 28 -181 36 -286 44 -575 48 -197 2 -319 -2 -410 -12z"/>
 </g>
<g id="layer103" fill="#ff8707" stroke="none">
 <path d="M6605 8664 c-71 -8 -179 -24 -240 -35 -60 -12 -132 -25 -158 -30 -27 -4 -81 -17 -120 -29 -144 -42 -243 -72 -282 -87 -22 -9 -62 -23 -90 -33 -106 -38 -401 -181 -505 -245 -30 -19 -66 -40 -80 -47 -52 -27 -280 -189 -280 -199 0 -4 -6 -9 -14 -11 -42 -9 -360 -308 -499 -468 -27 -30 -57 -65 -68 -76 -10 -12 -19 -25 -19 -29 0 -4 -10 -18 -22 -30 -21 -20 -92 -114 -128 -169 -8 -13 -33 -50 -55 -82 -21 -32 -47 -72 -56 -89 -9 -16 -26 -46 -37 -65 -53 -89 -97 -175 -149 -290 -30 -69 -66 -149 -79 -178 -13 -29 -24 -57 -24 -62 0 -5 -11 -38 -24 -72 -81 -216 -162 -590 -177 -822 -11 -169 -10 -484 1 -656 11 -180 70 -495 122 -655 11 -33 26 -80 33 -105 7 -25 27 -83 45 -130 17 -47 38 -103 47 -125 8 -22 22 -56 32 -75 10 -19 43 -87 75 -150 82 -167 144 -270 253 -429 29 -42 59 -85 68 -96 130 -168 284 -345 301 -345 3 0 53 -44 109 -99 129 -122 286 -249 430 -346 l110 -74 89 30 c105 35 245 64 378 78 60 7 391 11 858 11 l762 0 30 -31 31 -30 -7 -262 c-3 -144 -9 -277 -12 -296 l-7 -34 64 7 c263 28 577 96 789 171 36 13 74 25 85 28 89 24 474 207 590 281 34 22 217 143 250 166 75 51 226 172 281 225 153 147 249 243 294 296 29 35 59 69 64 74 11 10 19 21 121 155 59 76 172 246 206 308 13 23 38 68 56 100 70 126 203 413 203 438 0 5 11 36 24 69 25 65 72 215 80 255 2 14 13 59 24 100 32 119 70 353 82 500 23 302 5 717 -41 954 -42 216 -134 541 -160 570 -5 6 -9 18 -9 28 0 9 -11 42 -25 72 -14 30 -25 57 -25 60 0 7 -97 214 -112 241 -7 11 -23 41 -37 66 -63 114 -91 161 -126 214 -11 16 -24 37 -30 47 -18 31 -98 143 -124 174 -14 18 -35 44 -46 58 -105 139 -319 361 -465 485 -47 40 -95 81 -106 92 -12 10 -27 19 -32 19 -6 0 -15 6 -19 13 -10 17 -180 137 -193 137 -6 0 -10 4 -10 8 0 5 -21 21 -47 36 -27 15 -73 43 -103 61 -30 19 -62 37 -70 40 -8 4 -22 11 -30 16 -25 15 -171 86 -250 122 -139 63 -148 67 -157 67 -4 0 -35 11 -68 24 -104 41 -353 114 -428 126 -29 4 -99 17 -157 28 -181 36 -286 44 -575 48 -197 2 -319 -2 -410 -12z"/>
 </g>
<g id="layer104" fill="#ffd900" stroke="none">
 <path d="M8490 6244 c-336 -41 -558 -95 -810 -194 -598 -237 -1090 -654 -1422 -1205 -94 -155 -210 -412 -271 -600 -39 -117 -93 -353 -114 -490 -25 -168 -25 -640 -1 -802 34 -225 107 -509 136 -531 9 -7 53 -25 97 -39 l80 -27 516 -6 c488 -5 518 -6 538 -24 11 -10 23 -28 27 -38 5 -18 12 -20 73 -13 97 10 311 52 428 85 801 225 1462 771 1839 1520 152 301 246 624 290 985 22 190 15 572 -14 760 -22 135 -61 315 -88 397 l-15 47 -107 35 c-144 48 -330 93 -487 118 -102 16 -186 21 -395 23 -146 2 -281 1 -300 -1z"/>
 </g>

</svg>