<!DOCTYPE svg PUBLIC "-//W3C//DTD SVG 20010904//EN" "http://www.w3.org/TR/2001/REC-SVG-20010904/DTD/svg10.dtd">
<svg version="1.0" xmlns="http://www.w3.org/2000/svg" width="1600px" height="900px" viewBox="0 0 16000 9000" preserveAspectRatio="xMidYMid meet">
<g id="layer101" fill="#007b3e" stroke="none">
 <path d="M6730 8729 c-58 -10 -130 -24 -161 -29 -31 -6 -85 -19 -119 -30 -34 -11 -69 -20 -76 -20 -13 0 -73 -22 -214 -77 -85 -34 -290 -135 -360 -179 -30 -18 -62 -37 -70 -41 -38 -20 -130 -87 -130 -94 0 -5 -5 -9 -10 -9 -20 0 -168 -127 -291 -249 -122 -123 -249 -271 -249 -291 0 -5 -4 -10 -9 -10 -7 0 -74 -92 -94 -130 -4 -8 -23 -40 -41 -70 -91 -147 -226 -454 -261 -591 -7 -30 -20 -79 -28 -109 -8 -30 -25 -109 -38 -175 -22 -112 -24 -143 -24 -450 0 -307 2 -338 24 -450 13 -66 30 -145 38 -175 8 -30 21 -79 28 -109 13 -52 28 -93 82 -231 34 -84 135 -290 179 -360 18 -30 37 -62 41 -70 20 -38 87 -130 94 -130 5 0 9 -5 9 -10 0 -37 326 -382 443 -469 l57 -43 0 -579 0 -579 -162 0 c-90 0 -215 -7 -278 -14 -118 -14 -330 -65 -381 -91 -15 -8 -33 -15 -39 -15 -11 0 -107 -41 -145 -62 -11 -6 -46 -25 -79 -42 -100 -53 -111 -59 -116 -65 -3 -4 -26 -20 -52 -36 -27 -17 -48 -33 -48 -37 0 -5 -5 -8 -11 -8 -30 0 -211 -175 -363 -350 -7 -8 -42 -60 -78 -115 -132 -201 -212 -389 -273 -645 -26 -108 -28 -132 -33 -402 -4 -256 -3 -290 12 -313 l16 -25 201 0 200 0 -7 -22 c-6 -21 -25 -307 -26 -408 0 -25 3 -69 7 -98 6 -42 13 -57 37 -74 30 -20 31 -21 816 -19 862 2 936 6 1132 60 142 39 279 91 355 134 11 6 40 21 65 34 62 33 78 42 144 88 32 22 65 45 75 50 80 49 337 306 386 386 5 10 28 43 50 75 46 66 55 82 88 144 13 25 28 54 34 65 52 92 98 222 149 420 44 169 44 171 44 342 l0 173 383 0 383 0 100 34 c95 32 205 88 212 107 2 5 9 9 17 9 17 0 185 169 185 186 0 8 4 14 8 14 11 0 78 118 90 160 6 19 20 61 31 92 21 56 21 73 21 742 l0 684 58 43 c124 93 442 430 442 469 0 5 4 10 9 10 7 0 74 92 94 130 4 8 23 40 41 70 36 57 128 238 166 325 64 145 117 329 161 550 22 112 24 143 24 450 0 307 -2 338 -24 450 -13 66 -30 145 -38 175 -8 30 -21 79 -28 109 -13 52 -28 93 -82 231 -34 84 -135 290 -179 360 -18 30 -37 62 -41 70 -20 38 -87 130 -94 130 -5 0 -9 5 -9 10 0 20 -127 168 -249 291 -123 122 -271 249 -291 249 -5 0 -10 4 -10 9 0 7 -92 74 -130 94 -8 4 -40 23 -70 41 -146 91 -453 226 -591 261 -30 7 -81 20 -114 29 -216 55 -266 60 -595 63 -278 2 -327 0 -420 -18z"/>
 </g>
<g id="layer102" fill="#2cae4c" stroke="none">
 <path d="M6730 8729 c-58 -10 -130 -24 -161 -29 -30 -5 -82 -19 -114 -30 -32 -11 -66 -20 -76 -20 -10 0 -49 -12 -86 -26 -38 -15 -97 -38 -133 -52 -105 -40 -342 -161 -431 -220 -14 -9 -49 -32 -77 -50 -29 -19 -52 -38 -52 -43 0 -5 -5 -9 -11 -9 -17 0 -228 -182 -315 -271 -94 -97 -224 -253 -224 -268 0 -6 -3 -11 -8 -11 -4 0 -23 -23 -42 -51 -36 -53 -40 -59 -95 -149 -43 -70 -144 -275 -177 -360 -63 -160 -78 -201 -78 -216 0 -9 -11 -53 -24 -98 -13 -44 -35 -135 -48 -201 -21 -111 -23 -145 -23 -450 0 -305 2 -339 23 -450 13 -66 35 -157 48 -201 13 -45 24 -89 24 -98 0 -15 15 -56 78 -216 33 -85 134 -290 177 -360 87 -142 126 -200 136 -200 5 0 9 -5 9 -11 0 -5 42 -61 94 -122 101 -122 245 -264 344 -341 l62 -49 0 -642 c0 -536 3 -656 15 -724 25 -132 96 -277 182 -372 l35 -39 713 0 c851 0 765 16 765 -146 l0 -104 388 0 388 0 100 34 c95 32 205 88 212 107 2 5 9 9 17 9 17 0 185 169 185 186 0 8 4 14 8 14 11 0 78 118 90 160 6 19 20 61 31 92 21 56 21 73 21 742 l0 684 58 43 c114 85 442 433 442 469 0 5 4 10 9 10 7 0 74 92 94 130 4 8 23 40 41 70 35 56 156 293 156 305 0 3 9 25 19 48 60 131 108 301 153 532 21 110 23 147 23 445 0 300 -2 334 -23 445 -13 66 -35 157 -48 201 -13 45 -24 89 -24 98 0 15 -23 80 -78 216 -52 130 -163 346 -230 446 -52 80 -78 114 -84 114 -5 0 -8 5 -8 11 0 17 -182 228 -271 315 -95 92 -253 224 -268 224 -5 0 -11 4 -13 8 -15 40 -384 247 -558 314 -36 14 -95 37 -133 52 -37 14 -75 26 -83 26 -9 0 -53 11 -98 24 -202 60 -287 70 -626 73 -278 2 -327 0 -420 -18z"/>
 </g>
<g id="layer103" fill="#07ffea" stroke="none">
 <path d="M9002 6069 c-238 -31 -513 -103 -734 -193 -96 -39 -338 -158 -378 -185 -14 -10 -29 -20 -35 -22 -8 -3 -119 -77 -205 -136 -119 -82 -326 -268 -428 -383 -83 -94 -171 -201 -205 -250 -59 -86 -133 -197 -136 -205 -2 -5 -12 -21 -22 -35 -27 -40 -146 -282 -185 -378 -93 -230 -160 -487 -196 -754 -27 -199 -14 -638 23 -826 l11 -53 711 3 c702 3 713 3 758 24 58 27 116 85 143 143 21 45 21 55 24 828 l3 783 87 59 c132 89 198 142 306 249 314 310 518 712 581 1147 8 55 15 121 15 148 l0 47 -37 -1 c-21 -1 -66 -5 -101 -10z"/>
 </g>

</svg>