<!DOCTYPE svg PUBLIC "-//W3C//DTD SVG 20010904//EN" "http://www.w3.org/TR/2001/REC-SVG-20010904/DTD/svg10.dtd">
<svg version="1.0" xmlns="http://www.w3.org/2000/svg" width="1600px" height="900px" viewBox="0 0 16000 9000" preserveAspectRatio="xMidYMid meet">
<g id="layer101" fill="#007236" stroke="none">
 <path d="M6735 8675 c-5 -2 -71 -8 -145 -15 -74 -7 -178 -21 -230 -32 -52 -10 -119 -23 -149 -28 -81 -14 -330 -87 -426 -126 -33 -13 -64 -24 -68 -24 -5 0 -33 -11 -63 -25 -30 -14 -58 -25 -61 -25 -11 0 -322 -158 -381 -193 -173 -104 -242 -152 -367 -249 -206 -161 -506 -453 -565 -550 -9 -16 -20 -25 -23 -21 -4 3 -7 -1 -7 -10 0 -9 -8 -22 -18 -29 -9 -7 -25 -24 -34 -38 -40 -59 -81 -115 -87 -120 -3 -3 -10 -12 -16 -21 -5 -9 -27 -42 -48 -74 -22 -32 -42 -66 -45 -74 -3 -9 -15 -29 -26 -46 -52 -74 -129 -223 -196 -375 -18 -41 -40 -91 -48 -110 -27 -61 -73 -193 -86 -246 -7 -27 -16 -56 -20 -62 -4 -6 -13 -40 -21 -74 -8 -35 -23 -99 -34 -143 -59 -242 -80 -441 -80 -770 -1 -244 12 -443 38 -575 11 -58 24 -127 29 -155 18 -98 86 -341 122 -440 37 -98 99 -250 114 -280 9 -16 16 -35 16 -41 0 -6 11 -28 25 -48 13 -20 22 -36 19 -36 -3 0 3 -15 14 -32 11 -18 34 -62 53 -98 18 -36 41 -76 50 -90 9 -14 49 -76 89 -137 40 -62 77 -113 81 -113 5 0 9 -5 9 -11 0 -6 11 -25 25 -43 14 -17 29 -35 33 -41 23 -32 77 -101 82 -105 3 -3 30 -34 60 -70 30 -36 70 -79 89 -96 l34 -30 -39 -24 c-21 -14 -43 -27 -49 -30 -5 -3 -35 -22 -65 -43 -30 -20 -66 -45 -80 -54 -74 -50 -191 -159 -295 -275 -65 -72 -74 -85 -150 -198 -128 -192 -209 -385 -270 -640 -26 -108 -28 -132 -33 -402 -4 -256 -3 -290 12 -313 l16 -25 201 0 c188 0 201 -1 194 -17 -4 -10 -9 -83 -11 -163 -3 -80 -10 -169 -16 -197 -9 -41 -8 -67 1 -110 7 -32 15 -68 17 -79 2 -12 16 -29 30 -39 25 -16 81 -17 813 -16 619 2 812 5 906 16 118 15 273 52 390 95 55 20 272 124 320 153 42 26 111 72 136 92 15 11 39 29 55 40 77 55 264 242 319 319 11 16 29 40 40 55 20 25 66 94 92 136 29 48 133 265 153 320 13 33 39 124 59 202 35 138 37 141 66 148 17 4 46 7 65 6 27 -1 31 1 20 8 -13 9 -13 11 3 11 9 0 17 -4 17 -9 0 -4 24 -4 53 1 93 16 101 17 159 24 32 4 63 13 69 20 7 8 21 11 35 8 12 -3 40 0 61 7 48 16 47 16 84 18 16 0 28 4 26 9 -3 4 5 8 16 8 37 2 70 13 77 25 4 6 10 10 14 10 35 -5 66 1 60 11 -5 7 -3 8 5 3 7 -4 23 -3 34 2 50 23 73 32 97 36 22 5 75 25 183 70 15 7 27 15 27 19 0 4 12 8 28 10 15 2 26 8 25 15 -2 7 3 10 11 7 17 -7 198 85 191 97 -4 5 0 6 8 3 8 -3 21 2 30 10 9 9 23 16 31 16 9 0 24 8 34 17 10 10 31 25 47 33 17 8 32 18 35 21 3 3 20 14 38 23 17 9 32 19 32 22 0 3 -5 2 -12 -2 -7 -4 -8 -3 -4 4 4 6 13 9 21 5 8 -3 15 0 15 6 0 6 6 11 13 11 7 0 27 14 45 30 18 17 39 30 45 30 7 0 25 13 40 30 16 16 33 30 38 30 6 0 7 4 4 10 -3 5 0 8 7 5 7 -3 29 10 50 27 20 18 53 47 74 63 21 17 63 54 93 82 31 29 59 53 64 53 4 0 7 5 7 11 0 5 -5 7 -12 3 -6 -4 -8 -3 -5 3 4 6 20 16 37 23 16 7 30 17 30 22 0 6 -8 4 -17 -3 -16 -13 -17 -12 -4 3 7 10 17 16 21 13 10 -6 32 20 24 28 -3 3 12 17 34 31 33 21 75 64 161 167 6 8 31 38 56 68 25 30 46 58 46 63 1 4 2 12 3 17 0 5 5 13 10 18 5 5 6 2 2 -7 -4 -8 0 -6 8 5 9 11 23 28 31 38 8 9 15 21 15 26 0 4 9 16 20 26 12 10 19 24 16 30 -2 7 0 18 6 26 8 11 9 10 4 -3 -3 -10 -4 -18 -2 -18 4 0 66 97 66 105 0 3 7 13 16 22 8 9 12 23 9 31 -3 9 -3 13 1 10 10 -10 56 61 48 74 -4 7 -2 8 4 4 7 -4 14 4 18 21 4 15 16 36 26 47 10 11 16 27 13 35 -3 9 -3 12 1 9 8 -9 50 70 64 122 6 22 15 40 19 40 5 0 14 15 21 33 6 17 20 52 30 77 66 167 103 279 104 315 1 11 8 25 16 32 8 7 12 13 9 13 -6 0 -3 20 18 100 4 14 6 38 6 53 0 18 3 24 8 16 7 -13 12 8 23 96 3 22 10 55 15 73 5 17 8 32 6 32 -3 0 0 12 5 26 6 14 12 53 14 87 3 34 8 100 13 147 18 188 6 770 -17 794 -5 5 -6 15 -3 23 7 19 -32 234 -63 343 -13 47 -26 100 -29 117 -3 18 -13 56 -24 85 -10 29 -26 78 -36 108 -10 30 -21 60 -25 65 -4 6 -10 21 -13 35 -7 32 -52 140 -107 255 -36 75 -73 143 -178 330 -28 49 -163 248 -194 285 -16 19 -38 46 -49 58 -10 13 -19 28 -19 33 0 6 -4 7 -10 4 -5 -3 -10 -1 -10 6 0 16 -93 122 -225 255 -107 108 -154 151 -244 224 -24 19 -51 43 -60 53 -8 9 -21 17 -28 17 -6 0 -16 6 -20 13 -10 16 -180 137 -192 137 -5 0 -11 4 -13 9 -3 10 -100 68 -243 147 -101 56 -162 86 -367 178 -20 9 -40 16 -45 16 -4 0 -35 11 -68 24 -112 44 -355 115 -433 126 -31 4 -85 15 -119 24 -35 9 -107 21 -160 26 -54 6 -138 14 -188 20 -81 9 -516 13 -540 5z m-2125 -6040 c30 -30 52 -55 49 -55 -2 0 -29 25 -59 55 -30 30 -52 55 -49 55 2 0 29 -25 59 -55z m341 -281 c9 -11 2 -9 -18 6 -18 13 -33 25 -33 27 0 8 38 -17 51 -33z m564 -25 c-51 -10 -92 -10 -50 1 17 4 44 8 60 8 25 0 24 -2 -10 -9z"/>
 </g>
<g id="layer102" fill="#430e61" stroke="none">
 <path d="M6735 8675 c-5 -2 -71 -8 -145 -15 -74 -7 -178 -21 -230 -32 -52 -10 -119 -23 -149 -28 -81 -14 -330 -87 -426 -126 -33 -13 -64 -24 -68 -24 -5 0 -33 -11 -63 -25 -30 -14 -58 -25 -61 -25 -11 0 -322 -158 -381 -193 -173 -104 -242 -152 -367 -249 -206 -161 -506 -453 -565 -550 -9 -16 -20 -25 -23 -21 -4 3 -7 -1 -7 -10 0 -9 -8 -22 -18 -29 -9 -7 -25 -24 -34 -38 -40 -59 -81 -115 -87 -120 -3 -3 -10 -12 -16 -21 -5 -9 -27 -42 -48 -74 -22 -32 -42 -66 -45 -74 -3 -9 -15 -29 -26 -46 -52 -74 -129 -223 -196 -375 -18 -41 -40 -91 -48 -110 -27 -61 -73 -193 -86 -246 -7 -27 -16 -56 -20 -62 -4 -6 -13 -40 -21 -74 -8 -35 -23 -99 -34 -143 -59 -242 -80 -441 -80 -770 -1 -244 12 -443 38 -575 11 -58 24 -127 29 -155 18 -98 86 -341 122 -440 37 -98 99 -250 114 -280 9 -16 16 -35 16 -41 0 -6 11 -28 25 -48 13 -20 22 -36 19 -36 -3 0 3 -15 14 -32 11 -18 34 -62 53 -98 18 -36 41 -76 50 -90 9 -14 49 -76 89 -137 40 -62 77 -113 81 -113 5 0 9 -5 9 -11 0 -6 11 -25 25 -43 14 -17 29 -35 33 -41 26 -35 77 -101 82 -105 3 -3 32 -36 64 -74 32 -38 76 -83 98 -100 22 -17 77 -65 121 -107 45 -42 96 -89 112 -104 35 -32 198 -163 235 -188 14 -9 63 -44 110 -77 47 -33 92 -60 100 -60 8 0 -22 -16 -68 -34 -416 -172 -760 -498 -962 -911 -77 -159 -119 -276 -149 -420 -12 -55 -27 -115 -33 -134 -6 -19 -14 -109 -19 -200 -4 -91 -10 -182 -13 -201 -4 -19 -2 -55 4 -80 5 -25 12 -57 15 -71 2 -15 17 -34 31 -44 25 -16 81 -17 813 -16 861 2 935 6 1131 60 146 40 207 63 345 132 111 55 214 116 277 164 14 11 39 29 54 40 78 56 259 237 319 320 11 15 29 39 40 53 74 96 198 327 245 457 13 33 39 124 59 202 35 138 37 141 66 148 17 4 46 7 65 6 27 -1 31 1 20 8 -13 9 -13 11 3 11 9 0 17 -4 17 -9 0 -4 24 -4 53 1 93 16 101 17 159 24 32 4 63 13 69 20 7 8 21 11 35 8 12 -3 40 0 61 7 48 16 47 16 84 18 16 0 28 4 26 9 -3 4 5 8 16 8 37 2 70 13 77 25 4 6 10 10 14 10 35 -5 66 1 60 11 -5 7 -3 8 5 3 7 -4 23 -3 34 2 50 23 73 32 97 36 22 5 75 25 183 70 15 7 27 15 27 19 0 4 12 8 28 10 15 2 26 8 25 15 -2 7 3 10 11 7 17 -7 198 85 191 97 -4 5 0 6 8 3 8 -3 21 2 30 10 9 9 23 16 31 16 9 0 24 8 34 17 10 10 31 25 47 33 17 8 32 18 35 21 3 3 20 14 38 23 17 9 32 19 32 22 0 3 -5 2 -12 -2 -7 -4 -8 -3 -4 4 4 6 13 9 21 5 8 -3 15 0 15 6 0 6 6 11 13 11 7 0 27 14 45 30 18 17 39 30 45 30 7 0 25 13 40 30 16 16 33 30 38 30 6 0 7 4 4 10 -3 5 0 8 7 5 7 -3 29 10 50 27 20 18 53 47 74 63 21 17 63 54 93 82 31 29 59 53 64 53 4 0 7 5 7 11 0 5 -5 7 -12 3 -6 -4 -8 -3 -5 3 4 6 20 16 37 23 16 7 30 17 30 22 0 6 -8 4 -17 -3 -16 -13 -17 -12 -4 3 7 10 17 16 21 13 10 -6 32 20 24 28 -3 3 12 17 34 31 33 21 75 64 161 167 6 8 31 38 56 68 25 30 46 58 46 63 1 4 2 12 3 17 0 5 5 13 10 18 5 5 6 2 2 -7 -4 -8 0 -6 8 5 9 11 23 28 31 38 8 9 15 21 15 26 0 4 9 16 20 26 12 10 19 24 16 30 -2 7 0 18 6 26 8 11 9 10 4 -3 -3 -10 -4 -18 -2 -18 4 0 66 97 66 105 0 3 7 13 16 22 8 9 12 23 9 31 -3 9 -3 13 1 10 10 -10 56 61 48 74 -4 7 -2 8 4 4 7 -4 14 4 18 21 4 15 16 36 26 47 10 11 16 27 13 35 -3 9 -3 12 1 9 8 -9 50 70 64 122 6 22 15 40 19 40 5 0 14 15 21 33 6 17 20 52 30 77 66 167 103 279 104 315 1 11 8 25 16 32 8 7 12 13 9 13 -6 0 -3 20 18 100 4 14 6 38 6 53 0 18 3 24 8 16 7 -13 12 8 23 96 3 22 10 55 15 73 5 17 8 32 6 32 -3 0 0 12 5 26 6 14 12 53 14 87 3 34 8 100 13 147 18 188 6 770 -17 794 -5 5 -6 15 -3 23 7 19 -32 234 -63 343 -13 47 -26 100 -29 117 -3 18 -13 56 -24 85 -10 29 -26 78 -36 108 -10 30 -21 60 -25 65 -4 6 -10 21 -13 35 -7 32 -52 140 -107 255 -36 75 -73 143 -178 330 -28 49 -163 248 -194 285 -16 19 -38 46 -49 58 -10 13 -19 28 -19 33 0 6 -4 7 -10 4 -5 -3 -10 -1 -10 6 0 16 -93 122 -225 255 -107 108 -154 151 -244 224 -24 19 -51 43 -60 53 -8 9 -21 17 -28 17 -6 0 -16 6 -20 13 -10 16 -180 137 -192 137 -5 0 -11 4 -13 9 -3 10 -100 68 -243 147 -101 56 -162 86 -367 178 -20 9 -40 16 -45 16 -4 0 -35 11 -68 24 -112 44 -355 115 -433 126 -31 4 -85 15 -119 24 -35 9 -107 21 -160 26 -54 6 -138 14 -188 20 -81 9 -516 13 -540 5z m-1220 -6346 c-51 -10 -92 -10 -50 1 17 4 44 8 60 8 25 0 24 -2 -10 -9z"/>
 </g>
<g id="layer103" fill="#009655" stroke="none">
 <path d="M6753 8673 c9 -2 25 -2 35 0 9 3 1 5 -18 5 -19 0 -27 -2 -17 -5z"/>
 <path d="M7173 8673 c9 -2 25 -2 35 0 9 3 1 5 -18 5 -19 0 -27 -2 -17 -5z"/>
 <path d="M8180 8465 c14 -8 30 -14 35 -14 6 0 -1 6 -15 14 -14 8 -29 14 -35 14 -5 0 1 -6 15 -14z"/>
 <path d="M8840 8147 c0 -2 14 -13 30 -25 17 -13 30 -19 30 -14 0 4 -13 16 -30 25 -16 10 -30 16 -30 14z"/>
 <path d="M9330 7777 c0 -6 64 -72 98 -101 42 -36 22 -11 -38 48 -33 32 -60 56 -60 53z"/>
 <path d="M4500 7653 l-95 -98 98 95 c90 88 102 100 94 100 -1 0 -45 -44 -97 -97z"/>
 <path d="M9478 7623 c15 -16 36 -35 47 -43 11 -8 2 4 -20 28 -22 23 -43 42 -47 42 -3 0 6 -12 20 -27z"/>
 <path d="M4181 7286 l-24 -31 28 27 c16 15 27 29 24 31 -2 3 -15 -10 -28 -27z"/>
 <path d="M9916 7075 c16 -22 29 -42 31 -44 2 -2 3 0 3 5 0 5 -14 25 -31 44 l-30 35 27 -40z"/>
 <path d="M8575 6252 c-4 -4 -25 -8 -48 -9 -23 -2 -76 -5 -117 -8 -41 -2 -87 -5 -102 -5 -15 0 -29 -4 -33 -9 -3 -5 -14 -8 -25 -6 -11 2 -20 0 -20 -4 0 -5 -11 -6 -25 -3 -14 2 -25 0 -25 -5 0 -10 -4 -11 -62 -16 -20 -1 -40 -6 -43 -9 -4 -4 -13 -4 -21 -1 -8 3 -14 0 -14 -5 0 -6 -14 -10 -32 -10 -18 1 -34 -4 -36 -10 -2 -6 -10 -8 -18 -5 -8 3 -14 0 -14 -7 0 -7 -8 -10 -20 -7 -11 3 -23 1 -26 -4 -3 -5 -10 -7 -15 -4 -5 4 -16 -1 -25 -9 -9 -9 -19 -14 -24 -11 -5 3 -11 1 -15 -4 -3 -6 -12 -8 -20 -4 -8 3 -15 0 -15 -7 0 -7 -8 -9 -20 -5 -13 4 -20 2 -20 -6 0 -7 -3 -10 -6 -6 -4 3 -13 -1 -21 -9 -8 -8 -19 -11 -24 -8 -6 3 -19 -2 -29 -11 -10 -9 -24 -14 -29 -10 -6 3 -11 1 -11 -5 0 -6 -4 -9 -9 -5 -5 3 -12 1 -16 -5 -4 -6 -11 -7 -17 -4 -7 4 -8 2 -4 -4 7 -12 -5 -16 -31 -13 -7 1 -13 -4 -13 -10 0 -7 -3 -9 -7 -6 -3 4 -12 2 -20 -4 -7 -6 -13 -8 -13 -3 0 4 -7 -1 -16 -12 -8 -10 -12 -13 -9 -6 6 11 3 11 -14 0 -12 -7 -21 -16 -21 -21 0 -4 -4 -6 -9 -2 -5 3 -17 -2 -25 -11 -9 -8 -16 -13 -16 -9 0 9 -52 -20 -94 -54 -21 -17 -42 -28 -47 -25 -5 3 -9 0 -9 -6 0 -6 -4 -9 -9 -6 -5 3 -12 -1 -15 -10 -3 -8 -10 -13 -15 -9 -6 3 -14 -3 -20 -12 -6 -10 -11 -14 -11 -9 0 6 -7 1 -16 -10 -8 -10 -13 -12 -9 -4 5 12 4 12 -7 -1 -7 -8 -21 -18 -30 -22 -10 -3 -18 -11 -18 -17 0 -6 -4 -9 -9 -5 -5 3 -16 -4 -24 -15 -7 -11 -16 -18 -19 -15 -3 3 -20 -9 -37 -27 -18 -18 -36 -33 -40 -33 -4 0 -19 -13 -34 -29 -15 -16 -27 -25 -27 -20 0 5 -7 -2 -16 -14 -8 -12 -21 -22 -28 -22 -14 0 -52 -38 -48 -49 1 -3 -2 -6 -7 -6 -5 0 -17 -9 -27 -20 -11 -12 -15 -14 -9 -5 5 8 -7 0 -28 -19 -20 -19 -33 -39 -30 -44 3 -6 2 -7 -4 -4 -5 3 -25 -10 -44 -30 -19 -21 -27 -33 -19 -28 9 6 7 2 -5 -9 -11 -10 -20 -22 -20 -27 0 -5 -3 -8 -6 -6 -11 3 -49 -35 -49 -49 0 -7 -10 -20 -22 -28 -12 -9 -18 -16 -13 -16 5 0 -7 -14 -26 -31 -19 -18 -27 -28 -19 -24 8 4 -3 -10 -25 -33 -22 -22 -39 -44 -39 -49 1 -4 -7 -14 -18 -21 -10 -7 -16 -18 -13 -23 4 -5 1 -9 -5 -9 -6 0 -14 -8 -17 -17 -4 -10 -14 -24 -22 -31 -13 -11 -13 -12 -1 -7 8 4 6 -1 -4 -9 -11 -9 -16 -16 -10 -16 5 0 1 -5 -9 -11 -9 -6 -15 -14 -12 -20 4 -5 -1 -12 -9 -15 -9 -3 -13 -10 -10 -15 3 -5 0 -9 -6 -9 -6 0 -9 -4 -6 -8 3 -5 -13 -32 -34 -61 -22 -29 -37 -57 -34 -62 3 -5 0 -9 -7 -9 -7 0 -10 -3 -6 -6 3 -4 -1 -13 -9 -21 -8 -8 -12 -19 -9 -24 4 -5 2 -9 -2 -9 -5 0 -14 -9 -21 -21 -11 -17 -11 -20 0 -14 7 3 4 -1 -6 -9 -11 -9 -16 -16 -12 -16 5 0 3 -6 -3 -13 -6 -8 -8 -17 -4 -20 3 -4 1 -7 -6 -7 -7 0 -11 -6 -8 -12 2 -7 -3 -19 -12 -26 -13 -11 -13 -12 -1 -6 11 6 10 2 -3 -13 -9 -11 -14 -23 -10 -26 3 -4 1 -7 -6 -7 -7 0 -9 -5 -6 -11 4 -5 -1 -19 -10 -29 -9 -10 -14 -23 -11 -29 3 -5 0 -16 -8 -24 -8 -8 -12 -17 -9 -21 4 -3 1 -6 -6 -6 -8 0 -10 -7 -6 -20 4 -12 2 -20 -5 -20 -7 0 -10 -7 -7 -15 4 -8 2 -17 -4 -20 -5 -4 -7 -10 -4 -15 3 -5 -2 -15 -11 -24 -8 -9 -13 -20 -9 -25 3 -5 1 -12 -4 -15 -5 -3 -7 -15 -4 -26 3 -12 0 -20 -7 -20 -7 0 -10 -6 -7 -14 3 -8 1 -16 -5 -18 -6 -2 -11 -18 -10 -36 0 -18 -4 -32 -10 -32 -5 0 -8 -7 -5 -15 4 -8 2 -17 -2 -20 -5 -3 -9 -20 -10 -37 -1 -55 -4 -68 -14 -68 -5 0 -6 -11 -3 -25 4 -14 2 -25 -3 -25 -6 0 -8 -9 -6 -20 2 -11 -1 -22 -6 -25 -5 -4 -9 -18 -9 -33 0 -15 -3 -61 -5 -102 -3 -41 -6 -93 -8 -115 -1 -22 -5 -44 -9 -50 -8 -13 -8 -337 0 -350 4 -5 8 -28 9 -50 2 -22 5 -74 8 -115 2 -41 5 -87 5 -102 0 -15 4 -29 9 -33 5 -3 8 -14 6 -25 -2 -11 0 -20 4 -20 5 0 6 -11 3 -25 -2 -14 0 -25 5 -25 10 0 13 -13 14 -68 1 -17 5 -34 10 -37 4 -3 6 -12 2 -20 -3 -8 0 -15 5 -15 6 0 10 -14 10 -32 -1 -18 4 -34 10 -36 6 -2 8 -10 5 -18 -3 -8 0 -14 7 -14 7 0 10 -8 7 -20 -3 -11 -1 -23 4 -26 5 -3 7 -10 4 -15 -3 -5 -1 -14 5 -21 6 -7 16 -21 23 -30 7 -9 57 -30 112 -46 l100 -30 -320 -5 c-331 -5 -396 -11 -575 -57 -134 -34 -226 -68 -355 -130 -379 -183 -678 -482 -865 -865 -77 -159 -119 -276 -149 -420 -12 -55 -27 -115 -33 -134 -6 -19 -14 -109 -19 -200 -4 -91 -10 -182 -13 -201 -4 -19 -2 -55 4 -80 5 -25 12 -57 15 -71 2 -15 17 -34 31 -44 25 -16 81 -17 813 -16 861 2 935 6 1131 60 146 40 207 63 345 132 111 55 214 116 277 164 14 11 39 29 54 40 78 56 259 237 319 320 11 15 29 39 40 53 74 96 199 329 245 457 12 33 37 115 55 182 40 148 59 369 54 608 -2 87 -2 151 -1 141 4 -16 11 -17 70 -11 37 3 126 18 197 31 717 136 1359 541 1803 1137 282 378 468 824 544 1308 20 125 23 182 23 434 0 228 -4 316 -18 410 -31 206 -101 490 -118 479 -5 -3 -9 0 -9 6 0 7 -8 9 -20 5 -12 -4 -20 -2 -20 5 0 7 -7 10 -15 7 -8 -4 -17 -2 -20 4 -4 5 -10 7 -15 4 -5 -3 -15 2 -24 11 -9 8 -20 13 -25 9 -5 -3 -12 -1 -15 4 -3 5 -15 7 -26 4 -12 -3 -20 0 -20 7 0 7 -6 10 -14 7 -8 -3 -16 -1 -18 5 -2 6 -18 11 -36 10 -18 0 -32 4 -32 10 0 5 -7 8 -15 5 -8 -4 -17 -2 -20 2 -3 5 -20 9 -37 10 -55 1 -68 4 -68 14 0 5 -11 7 -25 5 -14 -3 -25 -2 -25 3 0 4 -11 6 -25 3 -14 -2 -25 0 -25 6 0 6 -12 10 -27 10 -16 1 -62 3 -103 5 -41 3 -93 6 -115 8 -22 1 -44 5 -50 9 -13 8 -342 8 -350 0z"/>
 <path d="M3492 5400 c0 -19 2 -27 5 -17 2 9 2 25 0 35 -3 9 -5 1 -5 -18z"/>
 <path d="M10462 5360 c0 -19 2 -27 5 -17 2 9 2 25 0 35 -3 9 -5 1 -5 -18z"/>
 <path d="M10463 5015 c0 -22 2 -30 4 -17 2 12 2 30 0 40 -3 9 -5 -1 -4 -23z"/>
 <path d="M10433 4734 c-3 -8 -2 -19 4 -25 5 -5 9 1 11 16 2 28 -6 33 -15 9z"/>
 <path d="M10305 4136 c-8 -18 -16 -44 -19 -57 -4 -24 -10 -40 -41 -114 -9 -22 -13 -35 -7 -30 16 18 95 235 85 235 -2 0 -10 -15 -18 -34z"/>
 <path d="M10209 3868 c-13 -28 -23 -54 -22 -57 1 -3 -5 -16 -13 -28 -8 -13 -10 -23 -5 -23 5 0 14 15 21 33 6 17 20 52 31 76 11 24 18 45 16 47 -2 2 -14 -19 -28 -48z"/>
 <path d="M3810 3706 c0 -11 30 -66 36 -66 2 0 -3 15 -12 33 -19 36 -24 44 -24 33z"/>
 <path d="M10109 3648 c-13 -23 -23 -45 -24 -48 0 -3 -7 -16 -14 -28 -7 -13 -11 -26 -8 -28 2 -2 20 28 41 67 20 40 34 74 32 76 -3 3 -15 -15 -27 -39z"/>
 <path d="M10036 3512 c-4 -12 -25 -50 -47 -85 -21 -34 -48 -78 -59 -97 -68 -116 -126 -194 -376 -500 l-37 -45 44 45 c24 25 62 67 84 94 22 27 54 65 71 85 16 20 48 61 69 91 22 30 42 57 45 60 3 3 10 12 15 21 6 9 31 48 58 86 26 39 47 75 47 82 0 6 4 11 8 11 4 0 18 19 30 43 12 23 32 57 43 74 11 18 19 38 16 45 -2 8 -7 3 -11 -10z"/>
 <path d="M4340 2895 c29 -41 74 -91 99 -109 14 -11 -1 9 -33 45 -74 80 -84 89 -66 64z"/>
 <path d="M9455 2730 c-22 -22 -37 -40 -34 -40 9 0 81 72 76 76 -2 2 -21 -14 -42 -36z"/>
 <path d="M9345 2623 c-27 -25 -95 -81 -150 -125 -55 -45 -107 -88 -115 -95 -26 -25 55 25 87 54 17 16 48 42 69 58 21 17 50 41 64 55 14 14 43 40 64 58 21 18 37 35 35 37 -2 1 -26 -17 -54 -42z"/>
 <path d="M9026 2365 c-16 -12 -17 -15 -4 -15 8 0 21 7 28 15 16 19 1 19 -24 0z"/>
 <path d="M8963 2320 c-32 -19 -41 -30 -25 -30 8 1 70 50 62 50 -3 0 -20 -9 -37 -20z"/>
 <path d="M8877 2261 c-40 -26 -47 -36 -12 -18 42 23 62 37 50 36 -5 0 -22 -8 -38 -18z"/>
 <path d="M8797 2214 c-16 -9 -27 -17 -25 -20 6 -6 58 20 58 29 0 9 0 9 -33 -9z"/>
 <path d="M8720 2165 c-16 -9 -19 -14 -9 -15 8 0 24 7 35 15 24 18 7 19 -26 0z"/>
 <path d="M8674 2141 c-5 -5 -56 -32 -112 -61 -57 -28 -102 -54 -99 -56 4 -5 214 99 226 112 9 8 -6 13 -15 5z"/>
 <path d="M8415 2010 c-19 -8 -19 -9 2 -9 12 -1 25 4 28 9 7 12 -2 12 -30 0z"/>
 <path d="M8348 1982 c-21 -10 -38 -20 -38 -24 0 -4 10 -3 23 2 12 6 30 13 40 16 9 4 17 10 17 15 0 5 -1 9 -2 8 -2 0 -20 -8 -40 -17z"/>
 <path d="M8246 1939 c-21 -12 -50 -23 -65 -26 -33 -5 -41 -13 -14 -13 20 0 133 47 133 56 0 8 -15 3 -54 -17z"/>
 <path d="M8015 1860 c-18 -8 -17 -9 8 -9 16 -1 26 3 22 9 -3 6 -7 10 -8 9 -1 0 -11 -4 -22 -9z"/>
 <path d="M7730 1780 c-20 -6 -21 -8 -5 -8 11 0 29 3 40 8 25 11 -1 11 -35 0z"/>
 <path d="M7265 1710 c-3 -5 7 -8 24 -7 16 1 27 5 24 10 -6 10 -41 9 -48 -3z"/>
 </g>
<g id="layer104" fill="#9e4a5a" stroke="none">
 <path d="M6753 8673 c9 -2 25 -2 35 0 9 3 1 5 -18 5 -19 0 -27 -2 -17 -5z"/>
 <path d="M7173 8673 c9 -2 25 -2 35 0 9 3 1 5 -18 5 -19 0 -27 -2 -17 -5z"/>
 <path d="M8180 8465 c14 -8 30 -14 35 -14 6 0 -1 6 -15 14 -14 8 -29 14 -35 14 -5 0 1 -6 15 -14z"/>
 <path d="M8840 8147 c0 -2 14 -13 30 -25 17 -13 30 -19 30 -14 0 4 -13 16 -30 25 -16 10 -30 16 -30 14z"/>
 <path d="M9330 7777 c0 -6 64 -72 98 -101 42 -36 22 -11 -38 48 -33 32 -60 56 -60 53z"/>
 <path d="M4500 7653 l-95 -98 98 95 c90 88 102 100 94 100 -1 0 -45 -44 -97 -97z"/>
 <path d="M9478 7623 c15 -16 36 -35 47 -43 11 -8 2 4 -20 28 -22 23 -43 42 -47 42 -3 0 6 -12 20 -27z"/>
 <path d="M4181 7286 l-24 -31 28 27 c16 15 27 29 24 31 -2 3 -15 -10 -28 -27z"/>
 <path d="M9916 7075 c16 -22 29 -42 31 -44 2 -2 3 0 3 5 0 5 -14 25 -31 44 l-30 35 27 -40z"/>
 <path d="M8575 6252 c-4 -4 -25 -8 -48 -9 -23 -2 -76 -5 -117 -8 -41 -2 -87 -5 -102 -5 -15 0 -29 -4 -33 -9 -3 -5 -14 -8 -25 -6 -11 2 -20 0 -20 -4 0 -5 -11 -6 -25 -3 -14 2 -25 0 -25 -5 0 -10 -4 -11 -62 -16 -20 -1 -40 -6 -43 -9 -4 -4 -13 -4 -21 -1 -8 3 -14 0 -14 -5 0 -6 -14 -10 -32 -10 -18 1 -34 -4 -36 -10 -2 -6 -10 -8 -18 -5 -8 3 -14 0 -14 -7 0 -7 -8 -10 -20 -7 -11 3 -23 1 -26 -4 -3 -5 -10 -7 -15 -4 -5 4 -16 -1 -25 -9 -9 -9 -19 -14 -24 -11 -5 3 -11 1 -15 -4 -3 -6 -12 -8 -20 -4 -8 3 -15 0 -15 -7 0 -7 -8 -9 -20 -5 -13 4 -20 2 -20 -6 0 -7 -3 -10 -6 -6 -4 3 -13 -1 -21 -9 -8 -8 -19 -11 -24 -8 -6 3 -19 -2 -29 -11 -10 -9 -24 -14 -29 -10 -6 3 -11 1 -11 -5 0 -6 -4 -9 -9 -5 -5 3 -12 1 -16 -5 -4 -6 -11 -7 -17 -4 -7 4 -8 2 -4 -4 7 -12 -5 -16 -31 -13 -7 1 -13 -4 -13 -10 0 -7 -3 -9 -7 -6 -3 4 -12 2 -20 -4 -7 -6 -13 -8 -13 -3 0 4 -7 -1 -16 -12 -8 -10 -12 -13 -9 -6 6 11 3 11 -14 0 -12 -7 -21 -16 -21 -21 0 -4 -4 -6 -9 -2 -5 3 -17 -2 -25 -11 -9 -8 -16 -13 -16 -9 0 9 -52 -20 -94 -54 -21 -17 -42 -28 -47 -25 -5 3 -9 0 -9 -6 0 -6 -4 -9 -9 -6 -5 3 -12 -1 -15 -10 -3 -8 -10 -13 -15 -9 -6 3 -14 -3 -20 -12 -6 -10 -11 -14 -11 -9 0 6 -7 1 -16 -10 -8 -10 -13 -12 -9 -4 5 12 4 12 -7 -1 -7 -8 -21 -18 -30 -22 -10 -3 -18 -11 -18 -17 0 -6 -4 -9 -9 -5 -5 3 -16 -4 -24 -15 -7 -11 -16 -18 -19 -15 -3 3 -20 -9 -37 -27 -18 -18 -36 -33 -40 -33 -4 0 -19 -13 -34 -29 -15 -16 -27 -25 -27 -20 0 5 -7 -2 -16 -14 -8 -12 -21 -22 -28 -22 -14 0 -52 -38 -48 -49 1 -3 -2 -6 -7 -6 -5 0 -17 -9 -27 -20 -11 -12 -15 -14 -9 -5 5 8 -7 0 -28 -19 -20 -19 -33 -39 -30 -44 3 -6 2 -7 -4 -4 -5 3 -25 -10 -44 -30 -19 -21 -27 -33 -19 -28 9 6 7 2 -5 -9 -11 -10 -20 -22 -20 -27 0 -5 -3 -8 -6 -6 -11 3 -49 -35 -49 -49 0 -7 -10 -20 -22 -28 -12 -9 -18 -16 -13 -16 5 0 -7 -14 -26 -31 -19 -18 -27 -28 -19 -24 8 4 -3 -10 -25 -33 -22 -22 -39 -44 -39 -49 1 -4 -7 -14 -18 -21 -10 -7 -16 -18 -13 -23 4 -5 1 -9 -5 -9 -6 0 -14 -8 -17 -17 -4 -10 -14 -24 -22 -31 -13 -11 -13 -12 -1 -7 8 4 6 -1 -4 -9 -11 -9 -16 -16 -10 -16 5 0 1 -5 -9 -11 -9 -6 -15 -14 -12 -20 4 -5 -1 -12 -9 -15 -9 -3 -13 -10 -10 -15 3 -5 0 -9 -6 -9 -6 0 -9 -4 -6 -8 3 -5 -13 -32 -34 -61 -22 -29 -37 -57 -34 -62 3 -5 0 -9 -7 -9 -7 0 -10 -3 -6 -6 3 -4 -1 -13 -9 -21 -8 -8 -12 -19 -9 -24 4 -5 2 -9 -2 -9 -5 0 -14 -9 -21 -21 -11 -17 -11 -20 0 -14 7 3 4 -1 -6 -9 -11 -9 -16 -16 -12 -16 5 0 3 -6 -3 -13 -6 -8 -8 -17 -4 -20 3 -4 1 -7 -6 -7 -7 0 -11 -6 -8 -12 2 -7 -3 -19 -12 -26 -13 -11 -13 -12 -1 -6 11 6 10 2 -3 -13 -9 -11 -14 -23 -10 -26 3 -4 1 -7 -6 -7 -7 0 -9 -5 -6 -11 4 -5 -1 -19 -10 -29 -9 -10 -14 -23 -11 -29 3 -5 0 -16 -8 -24 -8 -8 -12 -17 -9 -21 4 -3 1 -6 -6 -6 -8 0 -10 -7 -6 -20 4 -12 2 -20 -5 -20 -7 0 -10 -7 -7 -15 4 -8 2 -17 -4 -20 -5 -4 -7 -10 -4 -15 3 -5 -2 -15 -11 -24 -8 -9 -13 -20 -9 -25 3 -5 1 -12 -4 -15 -5 -3 -7 -15 -4 -26 3 -12 0 -20 -7 -20 -7 0 -10 -6 -7 -14 3 -8 1 -16 -5 -18 -6 -2 -11 -18 -10 -36 0 -18 -4 -32 -10 -32 -5 0 -8 -7 -5 -15 4 -8 2 -17 -2 -20 -5 -3 -9 -20 -10 -37 -1 -55 -4 -68 -14 -68 -5 0 -6 -11 -3 -25 4 -14 2 -25 -3 -25 -6 0 -8 -9 -6 -20 2 -11 -1 -22 -6 -25 -5 -4 -9 -18 -9 -33 0 -15 -3 -61 -5 -102 -3 -41 -6 -93 -8 -115 -1 -22 -5 -44 -9 -50 -8 -13 -8 -337 0 -350 4 -5 8 -28 9 -50 2 -22 5 -74 8 -115 2 -41 5 -87 5 -102 0 -15 4 -29 9 -33 5 -3 8 -14 6 -25 -2 -11 0 -20 4 -20 5 0 6 -11 3 -25 -2 -14 0 -25 5 -25 10 0 13 -13 14 -68 1 -17 5 -34 10 -37 4 -3 6 -12 2 -20 -3 -8 0 -15 5 -15 6 0 10 -14 10 -32 -1 -18 4 -34 10 -36 6 -2 8 -10 5 -18 -3 -8 0 -14 7 -14 7 0 10 -8 7 -20 -3 -11 -1 -22 4 -25 4 -3 6 -12 2 -20 -3 -8 -1 -15 4 -15 6 0 15 -11 20 -23 9 -19 32 -30 120 -55 l108 -32 498 0 498 0 24 -25 c14 -13 25 -32 25 -41 0 -14 8 -15 68 -9 37 3 126 18 197 31 717 136 1359 541 1803 1137 282 378 468 824 544 1308 20 125 23 182 23 434 0 228 -4 316 -18 410 -31 206 -101 490 -118 479 -5 -3 -9 0 -9 6 0 7 -8 9 -20 5 -12 -4 -20 -2 -20 5 0 7 -7 10 -15 7 -8 -4 -17 -2 -20 4 -4 5 -10 7 -15 4 -5 -3 -15 2 -24 11 -9 8 -20 13 -25 9 -5 -3 -12 -1 -15 4 -3 5 -15 7 -26 4 -12 -3 -20 0 -20 7 0 7 -6 10 -14 7 -8 -3 -16 -1 -18 5 -2 6 -18 11 -36 10 -18 0 -32 4 -32 10 0 5 -7 8 -15 5 -8 -4 -17 -2 -20 2 -3 5 -20 9 -37 10 -55 1 -68 4 -68 14 0 5 -11 7 -25 5 -14 -3 -25 -2 -25 3 0 4 -11 6 -25 3 -14 -2 -25 0 -25 6 0 6 -12 10 -27 10 -16 1 -62 3 -103 5 -41 3 -93 6 -115 8 -22 1 -44 5 -50 9 -13 8 -342 8 -350 0z"/>
 <path d="M3492 5400 c0 -19 2 -27 5 -17 2 9 2 25 0 35 -3 9 -5 1 -5 -18z"/>
 <path d="M10462 5360 c0 -19 2 -27 5 -17 2 9 2 25 0 35 -3 9 -5 1 -5 -18z"/>
 <path d="M10463 5015 c0 -22 2 -30 4 -17 2 12 2 30 0 40 -3 9 -5 -1 -4 -23z"/>
 <path d="M10433 4734 c-3 -8 -2 -19 4 -25 5 -5 9 1 11 16 2 28 -6 33 -15 9z"/>
 <path d="M10305 4136 c-8 -18 -16 -44 -19 -57 -4 -24 -10 -40 -41 -114 -9 -22 -13 -35 -7 -30 16 18 95 235 85 235 -2 0 -10 -15 -18 -34z"/>
 <path d="M10209 3868 c-13 -28 -23 -54 -22 -57 1 -3 -5 -16 -13 -28 -8 -13 -10 -23 -5 -23 5 0 14 15 21 33 6 17 20 52 31 76 11 24 18 45 16 47 -2 2 -14 -19 -28 -48z"/>
 <path d="M3810 3706 c0 -11 30 -66 36 -66 2 0 -3 15 -12 33 -19 36 -24 44 -24 33z"/>
 <path d="M10109 3648 c-13 -23 -23 -45 -24 -48 0 -3 -7 -16 -14 -28 -7 -13 -11 -26 -8 -28 2 -2 20 28 41 67 20 40 34 74 32 76 -3 3 -15 -15 -27 -39z"/>
 <path d="M10036 3512 c-4 -12 -25 -50 -47 -85 -21 -34 -48 -78 -59 -97 -68 -116 -126 -194 -376 -500 l-37 -45 44 45 c24 25 62 67 84 94 22 27 54 65 71 85 16 20 48 61 69 91 22 30 42 57 45 60 3 3 10 12 15 21 6 9 31 48 58 86 26 39 47 75 47 82 0 6 4 11 8 11 4 0 18 19 30 43 12 23 32 57 43 74 11 18 19 38 16 45 -2 8 -7 3 -11 -10z"/>
 <path d="M4340 2895 c29 -41 74 -91 99 -109 14 -11 -1 9 -33 45 -74 80 -84 89 -66 64z"/>
 <path d="M9455 2730 c-22 -22 -37 -40 -34 -40 9 0 81 72 76 76 -2 2 -21 -14 -42 -36z"/>
 <path d="M9345 2623 c-27 -25 -95 -81 -150 -125 -55 -45 -107 -88 -115 -95 -26 -25 55 25 87 54 17 16 48 42 69 58 21 17 50 41 64 55 14 14 43 40 64 58 21 18 37 35 35 37 -2 1 -26 -17 -54 -42z"/>
 <path d="M9026 2365 c-16 -12 -17 -15 -4 -15 8 0 21 7 28 15 16 19 1 19 -24 0z"/>
 <path d="M8963 2320 c-32 -19 -41 -30 -25 -30 8 1 70 50 62 50 -3 0 -20 -9 -37 -20z"/>
 <path d="M8877 2261 c-40 -26 -47 -36 -12 -18 42 23 62 37 50 36 -5 0 -22 -8 -38 -18z"/>
 <path d="M8797 2214 c-16 -9 -27 -17 -25 -20 6 -6 58 20 58 29 0 9 0 9 -33 -9z"/>
 <path d="M8720 2165 c-16 -9 -19 -14 -9 -15 8 0 24 7 35 15 24 18 7 19 -26 0z"/>
 <path d="M8674 2141 c-5 -5 -56 -32 -112 -61 -57 -28 -102 -54 -99 -56 4 -5 214 99 226 112 9 8 -6 13 -15 5z"/>
 <path d="M8415 2010 c-19 -8 -19 -9 2 -9 12 -1 25 4 28 9 7 12 -2 12 -30 0z"/>
 <path d="M8348 1982 c-21 -10 -38 -20 -38 -24 0 -4 10 -3 23 2 12 6 30 13 40 16 9 4 17 10 17 15 0 5 -1 9 -2 8 -2 0 -20 -8 -40 -17z"/>
 <path d="M8246 1939 c-21 -12 -50 -23 -65 -26 -33 -5 -41 -13 -14 -13 20 0 133 47 133 56 0 8 -15 3 -54 -17z"/>
 <path d="M8015 1860 c-18 -8 -17 -9 8 -9 16 -1 26 3 22 9 -3 6 -7 10 -8 9 -1 0 -11 -4 -22 -9z"/>
 <path d="M7730 1780 c-20 -6 -21 -8 -5 -8 11 0 29 3 40 8 25 11 -1 11 -35 0z"/>
 <path d="M7265 1710 c-3 -5 7 -8 24 -7 16 1 27 5 24 10 -6 10 -41 9 -48 -3z"/>
 </g>
<g id="layer105" fill="#de8837" stroke="none">
 <path d="M8639 6256 c-3 -3 -37 -8 -75 -10 -84 -5 -270 -24 -304 -32 -14 -3 -34 -7 -45 -9 -11 -2 -31 -6 -45 -10 -34 -8 -108 -24 -145 -31 -16 -3 -37 -8 -45 -11 -8 -4 -19 -5 -24 -4 -5 1 -12 -2 -15 -6 -5 -7 -40 -19 -111 -38 -8 -2 -16 -4 -17 -5 -2 -2 -6 -3 -10 -5 -5 -1 -17 -5 -28 -9 -61 -23 -75 -28 -82 -28 -4 0 -19 -6 -33 -13 -31 -17 -103 -50 -110 -50 -12 0 -209 -101 -255 -130 -27 -17 -81 -51 -120 -76 -38 -24 -76 -49 -83 -56 -7 -7 -18 -13 -24 -13 -6 0 -18 -7 -27 -15 -9 -8 -34 -30 -57 -48 -22 -17 -60 -48 -84 -67 -117 -93 -306 -282 -385 -384 -39 -50 -101 -127 -120 -147 -8 -9 -15 -21 -15 -27 0 -6 -6 -17 -13 -24 -7 -7 -32 -44 -56 -83 -24 -38 -52 -82 -63 -98 -33 -48 -146 -275 -140 -281 3 -3 0 -6 -6 -6 -7 0 -11 -3 -10 -7 2 -11 -18 -61 -39 -98 -9 -16 -16 -31 -14 -33 3 -3 -1 -15 -25 -77 -4 -11 -8 -23 -9 -27 -2 -5 -3 -9 -5 -10 -1 -2 -3 -10 -5 -18 -19 -71 -31 -106 -38 -111 -4 -3 -7 -10 -6 -15 1 -5 0 -16 -4 -24 -3 -8 -8 -28 -11 -45 -6 -33 -22 -105 -31 -145 -3 -14 -8 -34 -10 -45 -2 -11 -6 -31 -9 -45 -6 -26 -24 -182 -34 -305 -8 -90 -8 -280 0 -370 10 -119 28 -279 34 -305 3 -14 7 -34 9 -45 2 -11 6 -31 10 -45 8 -34 24 -108 31 -145 3 -16 8 -37 11 -45 4 -8 5 -21 4 -27 -1 -7 3 -13 9 -13 5 0 10 -10 10 -22 0 -13 9 -41 19 -64 18 -40 20 -41 127 -72 l109 -32 498 0 498 0 24 -25 c14 -13 25 -32 25 -41 0 -14 8 -15 68 -9 37 3 126 18 197 31 717 136 1359 541 1803 1137 282 378 468 824 544 1308 20 125 23 182 23 434 0 318 -10 415 -66 660 -44 193 -55 224 -87 231 -15 4 -31 10 -37 15 -5 4 -13 8 -17 8 -5 1 -9 1 -10 2 -2 0 -10 2 -18 4 -71 19 -106 31 -111 38 -3 4 -10 7 -15 6 -5 -1 -16 0 -24 4 -8 3 -28 8 -45 11 -37 7 -111 23 -145 31 -114 28 -302 49 -545 61 -77 3 -143 3 -146 0z"/>
 </g>
<g id="layer106" fill="#c862a2" stroke="none">
 <path d="M8440 6235 c-132 -13 -337 -50 -434 -79 -27 -8 -53 -13 -58 -10 -4 3 -8 0 -8 -5 0 -6 -8 -11 -17 -11 -28 0 -252 -81 -363 -131 -70 -32 -262 -130 -290 -149 -14 -9 -79 -52 -145 -96 -308 -203 -576 -470 -779 -779 -44 -66 -87 -131 -96 -145 -19 -28 -117 -220 -149 -290 -50 -111 -131 -335 -131 -362 0 -10 -5 -18 -11 -18 -5 0 -8 -4 -5 -8 3 -5 -2 -31 -10 -58 -54 -182 -93 -490 -93 -744 0 -254 39 -562 93 -744 8 -27 13 -53 10 -58 -3 -4 0 -8 5 -8 6 0 11 -10 11 -22 0 -13 9 -41 19 -64 18 -40 20 -41 127 -72 l109 -32 498 0 498 0 24 -25 c14 -13 25 -32 25 -41 0 -14 8 -15 68 -9 37 3 126 18 197 31 717 136 1359 541 1803 1137 282 378 468 824 544 1308 20 125 23 182 23 434 0 228 -4 316 -18 410 -19 127 -67 349 -92 426 l-15 45 -94 32 c-52 18 -101 32 -110 32 -9 0 -16 5 -16 11 0 5 -4 8 -8 5 -5 -3 -31 2 -58 10 -261 79 -700 112 -1054 79z"/>
 </g>
<g id="layer107" fill="#b835fe" stroke="none">
 <path d="M8565 6244 c-356 -37 -553 -78 -791 -164 -819 -294 -1460 -935 -1754 -1754 -176 -490 -215 -1071 -104 -1584 28 -129 79 -311 91 -323 4 -4 55 -21 112 -38 l104 -31 499 0 499 0 24 -25 c14 -13 25 -32 25 -41 0 -14 8 -15 68 -9 37 3 126 18 197 31 717 136 1359 541 1803 1137 282 378 468 824 544 1308 20 125 23 182 23 434 0 318 -10 415 -66 660 -46 204 -53 219 -97 232 -20 7 -82 26 -137 43 -256 79 -513 119 -805 124 -107 2 -213 2 -235 0z"/>
 </g>

</svg>