<!DOCTYPE svg PUBLIC "-//W3C//DTD SVG 20010904//EN" "http://www.w3.org/TR/2001/REC-SVG-20010904/DTD/svg10.dtd">
<svg version="1.0" xmlns="http://www.w3.org/2000/svg" width="1600px" height="900px" viewBox="0 0 16000 9000" preserveAspectRatio="xMidYMid meet">
<g id="layer101" fill="#007236" stroke="none">
 <path d="M9590 7844 c-14 -3 -95 -13 -180 -24 -282 -37 -656 -125 -835 -196 -33 -13 -64 -24 -70 -24 -13 0 -152 -55 -304 -122 -105 -45 -333 -163 -441 -228 -30 -18 -64 -38 -75 -44 -17 -10 -57 -36 -160 -106 -105 -71 -125 -86 -125 -92 0 -5 -4 -8 -9 -8 -9 0 -200 -148 -241 -186 -8 -8 -39 -36 -69 -62 -45 -39 -309 -301 -355 -352 -8 -8 -53 -62 -101 -120 -47 -58 -94 -114 -103 -125 -9 -11 -21 -27 -27 -36 -5 -9 -28 -41 -50 -71 -22 -29 -44 -61 -50 -70 -5 -8 -28 -42 -50 -74 -43 -63 -50 -73 -80 -123 -11 -18 -30 -49 -42 -68 -13 -18 -23 -40 -23 -48 0 -8 -4 -15 -8 -15 -5 0 -49 -82 -99 -182 -120 -241 -138 -282 -208 -468 -108 -287 -214 -730 -236 -985 -4 -55 -13 -145 -18 -200 -6 -55 -11 -268 -11 -472 l0 -373 -197 0 c-109 0 -250 -7 -313 -14 -118 -14 -330 -65 -381 -91 -15 -8 -33 -15 -39 -15 -10 0 -99 -38 -145 -63 -11 -6 -46 -24 -79 -41 -100 -53 -111 -59 -116 -65 -3 -4 -26 -20 -52 -36 -27 -17 -48 -33 -48 -37 0 -5 -5 -8 -11 -8 -22 0 -205 -170 -292 -270 -27 -30 -56 -64 -66 -75 -9 -11 -47 -65 -83 -120 -125 -189 -209 -385 -267 -617 -30 -123 -40 -249 -41 -503 0 -184 3 -224 16 -243 15 -21 20 -22 216 -22 187 0 200 -1 193 -17 -3 -10 -9 -85 -11 -168 -3 -82 -10 -170 -15 -195 -5 -25 -7 -56 -4 -70 3 -14 9 -49 12 -78 5 -43 11 -56 35 -74 29 -20 34 -20 819 -19 851 2 920 6 1114 56 55 14 125 35 155 46 73 28 190 78 215 92 11 6 40 21 65 34 62 33 78 42 144 88 32 22 66 45 75 50 22 14 156 131 206 180 49 50 166 184 180 206 6 9 28 43 50 75 46 66 55 82 88 144 13 25 28 54 34 65 19 33 60 126 83 190 34 91 109 394 104 418 -2 12 -2 39 2 60 l6 37 861 0 c474 0 905 5 957 10 52 5 146 14 208 20 62 6 155 19 205 29 51 11 112 22 137 25 25 4 77 15 115 25 39 10 99 26 135 36 114 29 194 52 245 70 28 10 82 29 120 43 165 57 456 189 600 271 33 19 76 43 95 53 19 11 49 27 65 37 51 28 265 172 334 224 36 27 79 59 95 71 16 11 39 31 51 44 12 12 26 22 31 22 5 0 17 8 25 18 9 9 43 39 75 67 76 64 375 363 439 439 28 32 58 66 68 75 9 8 17 20 17 25 0 5 10 19 23 31 12 12 32 35 43 51 12 16 44 59 71 95 52 69 196 283 224 334 10 17 26 46 37 65 10 19 34 62 53 95 82 144 214 435 271 600 14 39 33 93 43 120 18 51 41 131 70 245 10 36 26 97 36 135 10 39 23 97 28 130 5 33 18 114 29 180 44 251 46 302 49 1292 4 873 2 955 -13 978 l-16 25 -1742 -1 c-957 -1 -1752 -3 -1766 -5z m-3862 -5501 c-10 -2 -26 -2 -35 0 -10 3 -2 5 17 5 19 0 27 -2 18 -5z"/>
 </g>
<g id="layer102" fill="#009655" stroke="none">
 <path d="M9590 7844 c-14 -3 -95 -13 -180 -24 -282 -37 -656 -125 -835 -196 -33 -13 -64 -24 -70 -24 -13 0 -152 -55 -304 -122 -105 -45 -333 -163 -441 -228 -30 -18 -64 -38 -75 -44 -17 -10 -57 -36 -160 -106 -105 -71 -125 -86 -125 -92 0 -5 -4 -8 -9 -8 -9 0 -200 -148 -241 -186 -8 -8 -39 -36 -69 -62 -45 -39 -309 -301 -355 -352 -8 -8 -53 -62 -101 -120 -47 -58 -94 -114 -103 -125 -9 -11 -21 -27 -27 -36 -5 -9 -28 -41 -50 -71 -22 -29 -44 -61 -50 -70 -5 -8 -28 -42 -50 -74 -43 -63 -50 -73 -80 -123 -11 -18 -30 -49 -42 -68 -13 -18 -23 -40 -23 -48 0 -8 -4 -15 -8 -15 -5 0 -49 -82 -99 -182 -120 -241 -138 -282 -208 -468 -108 -287 -214 -730 -236 -985 -4 -55 -13 -149 -20 -210 -7 -74 -10 -332 -7 -784 l3 -675 -117 -18 c-616 -92 -1135 -473 -1408 -1033 -77 -159 -119 -276 -149 -420 -12 -55 -26 -113 -32 -130 -5 -16 -12 -97 -15 -180 -3 -82 -9 -168 -14 -190 -6 -27 -5 -68 4 -124 16 -99 34 -120 106 -121 25 -1 380 -1 790 0 596 1 769 4 865 16 120 15 278 53 388 93 55 20 277 127 322 154 44 28 174 117 192 132 130 113 205 188 318 318 16 18 106 149 132 192 29 49 133 265 153 320 45 124 102 354 105 425 0 25 2 55 3 68 l2 22 863 0 c474 0 905 5 957 10 52 5 146 14 208 20 62 6 155 19 205 29 51 11 112 22 137 25 25 4 77 15 115 25 39 10 99 26 135 36 114 29 194 52 245 70 28 10 82 29 120 43 165 57 456 189 600 271 33 19 76 43 95 53 19 11 49 27 65 37 51 28 265 172 334 224 36 27 79 59 95 71 16 11 39 31 51 44 12 12 26 22 31 22 5 0 17 8 25 18 9 9 43 39 75 67 76 64 375 363 439 439 28 32 58 66 68 75 9 8 17 20 17 25 0 5 10 19 23 31 12 12 32 35 43 51 12 16 44 59 71 95 52 69 196 283 224 334 10 17 26 46 37 65 10 19 34 62 53 95 82 144 214 435 271 600 14 39 33 93 43 120 18 51 41 131 70 245 10 36 26 97 36 135 10 39 23 97 28 130 5 33 18 114 29 180 44 251 46 302 49 1292 4 873 2 955 -13 978 l-16 25 -1742 -1 c-957 -1 -1752 -3 -1766 -5z m-3862 -5501 c-10 -2 -26 -2 -35 0 -10 3 -2 5 17 5 19 0 27 -2 18 -5z"/>
 </g>
<g id="layer103" fill="#ffea00" stroke="none">
 <path d="M9590 7844 c-14 -3 -95 -13 -180 -24 -282 -37 -656 -125 -835 -196 -33 -13 -64 -24 -70 -24 -13 0 -152 -55 -304 -122 -105 -45 -333 -163 -441 -228 -30 -18 -64 -38 -75 -44 -17 -10 -57 -36 -160 -106 -105 -71 -125 -86 -125 -92 0 -5 -4 -8 -9 -8 -9 0 -200 -148 -241 -186 -8 -8 -39 -36 -69 -62 -45 -39 -309 -301 -355 -352 -8 -8 -53 -62 -101 -120 -47 -58 -94 -114 -103 -125 -9 -11 -21 -27 -27 -36 -5 -9 -28 -41 -50 -71 -22 -29 -44 -61 -50 -70 -5 -8 -28 -42 -50 -74 -43 -63 -50 -73 -80 -123 -11 -18 -30 -49 -42 -68 -13 -18 -23 -40 -23 -48 0 -8 -4 -15 -8 -15 -5 0 -49 -82 -99 -182 -120 -241 -138 -282 -208 -468 -108 -287 -214 -730 -236 -985 -4 -55 -13 -145 -18 -200 -12 -118 -13 -375 -4 -1006 l6 -464 790 3 791 2 28 -27 28 -27 0 -213 0 -213 863 0 c474 0 905 5 957 10 52 5 146 14 208 20 62 6 155 19 205 29 51 11 112 22 137 25 25 4 77 15 115 25 39 10 99 26 135 36 114 29 194 52 245 70 28 10 82 29 120 43 165 57 456 189 600 271 33 19 76 43 95 53 19 11 49 27 65 37 51 28 265 172 334 224 36 27 79 59 95 71 16 11 39 31 51 44 12 12 26 22 31 22 5 0 17 8 25 18 9 9 43 39 75 67 76 64 375 363 439 439 28 32 58 66 68 75 9 8 17 20 17 25 0 5 10 19 23 31 12 12 32 35 43 51 12 16 44 59 71 95 52 69 196 283 224 334 10 17 26 46 37 65 10 19 34 62 53 95 82 144 214 435 271 600 14 39 33 93 43 120 18 51 41 131 70 245 10 36 26 97 36 135 10 39 23 97 28 130 5 33 18 114 29 180 44 251 46 302 49 1292 4 873 2 955 -13 978 l-16 25 -1742 -1 c-957 -1 -1752 -3 -1766 -5z"/>
 </g>
<g id="layer104" fill="#fff17a" stroke="none">
 <path d="M11165 5674 c-549 -43 -1018 -205 -1454 -501 -161 -110 -268 -199 -421 -353 -445 -446 -721 -1001 -817 -1645 -14 -94 -18 -182 -18 -405 0 -157 4 -298 8 -314 l8 -28 312 5 c332 5 489 20 742 73 978 202 1837 777 2394 1604 270 400 462 845 565 1311 6 25 2 29 -62 54 -215 86 -454 147 -707 180 -117 16 -450 27 -550 19z"/>
 </g>

</svg>