<!DOCTYPE svg PUBLIC "-//W3C//DTD SVG 20010904//EN" "http://www.w3.org/TR/2001/REC-SVG-20010904/DTD/svg10.dtd">
<svg version="1.0" xmlns="http://www.w3.org/2000/svg" width="1600px" height="900px" viewBox="0 0 16000 9000" preserveAspectRatio="xMidYMid meet">
<g id="layer101" fill="#0068af" stroke="none">
 <path d="M4872 8827 l-22 -23 0 -2902 0 -2902 -71 0 c-66 0 -74 -2 -95 -27 l-24 -28 0 -961 0 -960 25 -22 25 -22 1172 0 1172 0 -135 -68 c-208 -106 -279 -162 -279 -222 0 -33 16 -44 73 -53 41 -6 250 16 305 32 32 10 47 -3 15 -13 -22 -7 -118 -99 -156 -149 -15 -20 -33 -61 -39 -90 -10 -48 -9 -58 10 -98 28 -57 100 -102 208 -131 111 -29 387 -36 539 -14 61 9 142 20 180 26 39 6 111 20 160 31 79 19 129 32 285 77 35 10 116 39 240 84 65 24 65 24 115 6 161 -59 254 -91 285 -98 19 -4 64 -17 100 -28 92 -28 233 -60 315 -72 39 -6 120 -17 180 -26 152 -22 428 -15 539 14 108 29 180 74 208 131 19 40 20 50 10 98 -6 29 -24 70 -39 90 -38 50 -134 142 -155 149 -33 10 -18 23 15 13 54 -16 263 -38 304 -32 57 9 73 20 73 53 0 60 -71 116 -279 222 l-135 68 1145 0 1146 0 21 23 22 23 0 958 c0 1126 13 1016 -121 1016 l-79 0 0 2900 c0 2653 -1 2903 -16 2925 l-16 25 -3602 0 -3603 0 -21 -23z m4217 -8127 c182 -19 296 -49 431 -112 80 -38 150 -124 150 -185 0 -46 -17 -93 -42 -113 -34 -28 -134 -26 -218 4 -36 13 -91 34 -123 45 -61 23 -140 60 -222 106 -27 16 -63 36 -80 45 -16 9 -46 26 -65 38 -19 12 -41 22 -49 22 -8 0 -35 9 -60 21 -116 54 -151 73 -152 86 -1 7 -2 19 -3 26 -1 6 15 15 34 18 57 10 298 9 399 -1z m-632 -22 c11 -12 13 -18 5 -18 -7 0 -11 -4 -7 -9 6 -10 -46 -51 -64 -51 -7 0 -33 -11 -59 -24 -26 -13 -60 -26 -76 -30 -17 -4 -73 -32 -125 -63 -171 -100 -219 -123 -352 -174 -108 -40 -142 -49 -196 -49 -58 0 -69 3 -89 26 -25 26 -31 40 -14 29 6 -3 10 -2 10 4 0 6 7 8 15 5 25 -10 17 12 -11 31 -21 14 -24 21 -18 43 4 15 10 45 13 67 5 31 15 46 50 73 31 24 51 32 67 28 16 -4 24 -1 26 10 5 25 139 72 266 93 64 11 128 22 142 25 14 2 109 3 212 3 164 -2 190 -4 205 -19z"/>
 <path d="M8790 682 c0 -10 129 -26 138 -17 10 9 -2 13 -70 20 -40 3 -68 2 -68 -3z"/>
 <path d="M8970 642 c0 -4 24 -15 53 -24 80 -25 127 -37 127 -32 0 8 -94 46 -125 50 -16 3 -36 7 -42 9 -7 2 -13 1 -13 -3z"/>
 <path d="M9314 591 c9 -13 66 -32 66 -21 0 12 -34 30 -55 30 -9 0 -14 -4 -11 -9z"/>
 <path d="M9040 555 c-10 -12 -7 -16 16 -25 32 -13 75 -10 74 5 -1 6 -10 9 -21 8 -10 -2 -19 1 -19 6 0 5 -10 7 -22 3 -14 -3 -19 -2 -14 6 10 17 1 15 -14 -3z"/>
 <path d="M9225 546 c17 -8 32 -12 34 -10 7 6 -2 11 -34 17 l-30 6 30 -13z"/>
 <path d="M9340 552 c0 -7 48 -32 62 -32 22 0 4 18 -27 27 -19 6 -35 8 -35 5z"/>
 <path d="M9365 410 c3 -5 16 -10 28 -9 21 0 21 1 2 9 -28 12 -37 12 -30 0z"/>
 <path d="M9334 375 c23 -17 50 -20 41 -5 -4 6 -11 8 -16 5 -5 -4 -9 -1 -9 4 0 6 -8 11 -17 11 -16 -1 -16 -2 1 -15z"/>
 <path d="M9610 345 c-10 -12 -10 -15 4 -15 9 0 16 7 16 15 0 8 -2 15 -4 15 -2 0 -9 -7 -16 -15z"/>
 <path d="M9555 320 c-3 -5 3 -10 15 -10 12 0 18 5 15 10 -3 6 -10 10 -15 10 -5 0 -12 -4 -15 -10z"/>
 <path d="M8228 673 c-16 -3 -28 -8 -28 -13 0 -4 15 -5 33 0 18 4 47 5 64 3 17 -3 33 -1 36 4 6 9 -58 13 -105 6z"/>
 <path d="M8080 621 c-50 -16 -103 -40 -90 -41 3 0 21 5 40 11 19 5 45 12 57 15 32 6 73 23 73 29 0 9 -22 5 -80 -14z"/>
 <path d="M7770 582 c-33 -14 -33 -16 -11 -20 13 -2 31 3 39 12 23 23 12 26 -28 8z"/>
 <path d="M7735 532 c-3 -7 -9 -10 -15 -7 -5 3 -10 1 -10 -4 0 -6 4 -11 8 -11 12 0 62 24 62 30 0 12 -40 5 -45 -8z"/>
 <path d="M7885 540 c-19 -8 -19 -9 2 -9 12 -1 25 4 28 9 7 12 -2 12 -30 0z"/>
 <path d="M8038 536 c3 -5 -4 -7 -15 -4 -12 3 -27 2 -34 -3 -23 -14 19 -23 59 -13 45 11 55 34 14 31 -17 -1 -28 -6 -24 -11z"/>
 <path d="M7519 494 c-23 -25 -23 -26 -2 -15 23 12 38 29 31 37 -3 2 -15 -8 -29 -22z"/>
 <path d="M7730 400 c-21 -7 -21 -8 -5 -9 11 0 27 4 35 9 18 11 5 11 -30 0z"/>
 <path d="M7768 374 c-32 -17 -34 -21 -13 -21 8 0 15 4 15 8 0 5 7 6 15 3 9 -4 15 0 15 10 0 19 2 19 -32 0z"/>
 <path d="M7536 312 c-9 -15 6 -22 37 -18 29 3 50 16 26 16 -8 0 -24 3 -35 6 -12 3 -25 1 -28 -4z"/>
 </g>
<g id="layer102" fill="#007fc7" stroke="none">
 <path d="M4872 8827 l-22 -23 0 -2872 c0 -1580 2 -2872 5 -2872 3 0 17 12 30 27 l23 28 1587 5 1586 5 -3 -65 -3 -65 -1685 -2 -1684 -1 -23 -22 -23 -22 0 -962 0 -962 25 -22 25 -22 1172 0 1172 0 -135 -68 c-208 -106 -279 -162 -279 -222 0 -33 16 -44 73 -53 41 -6 250 16 305 32 32 10 47 -3 15 -13 -22 -7 -118 -99 -156 -149 -15 -20 -33 -61 -39 -90 -10 -48 -9 -58 10 -98 28 -57 100 -102 208 -131 111 -29 387 -36 539 -14 61 9 142 20 180 26 39 6 111 20 160 31 79 19 129 32 285 77 35 10 116 39 240 84 65 24 65 24 115 6 161 -59 254 -91 285 -98 19 -4 64 -17 100 -28 92 -28 233 -60 315 -72 39 -6 120 -17 180 -26 152 -22 428 -15 539 14 108 29 180 74 208 131 19 40 20 50 10 98 -6 29 -24 70 -39 90 -38 50 -134 142 -155 149 -33 10 -18 23 15 13 54 -16 263 -38 304 -32 57 9 73 20 73 53 0 60 -71 116 -279 222 l-135 68 1145 0 1146 0 21 23 22 23 0 960 0 959 -23 25 -22 25 -1655 -5 c-910 -3 -1672 -4 -1692 -2 l-38 3 0 65 0 65 1578 -2 c977 -1 1585 -6 1597 -12 11 -5 28 -19 37 -31 17 -20 18 128 18 2850 l0 2871 -21 27 -20 26 -3598 0 -3598 0 -21 -23z m4217 -8127 c182 -19 296 -49 431 -112 80 -38 150 -124 150 -185 0 -46 -17 -93 -42 -113 -34 -28 -134 -26 -218 4 -36 13 -91 34 -123 45 -61 23 -140 60 -222 106 -27 16 -63 36 -80 45 -16 9 -46 26 -65 38 -19 12 -41 22 -49 22 -8 0 -35 9 -60 21 -116 54 -151 73 -152 86 -1 7 -2 19 -3 26 -1 6 15 15 34 18 57 10 298 9 399 -1z m-632 -22 c11 -12 13 -18 5 -18 -7 0 -11 -4 -7 -9 6 -10 -46 -51 -64 -51 -7 0 -33 -11 -59 -24 -26 -13 -60 -26 -76 -30 -17 -4 -73 -32 -125 -63 -171 -100 -219 -123 -352 -174 -108 -40 -142 -49 -196 -49 -58 0 -69 3 -89 26 -25 26 -31 40 -14 29 6 -3 10 -2 10 4 0 6 7 8 15 5 25 -10 17 12 -11 31 -21 14 -24 21 -18 43 4 15 10 45 13 67 5 31 15 46 50 73 31 24 51 32 67 28 16 -4 24 -1 26 10 5 25 139 72 266 93 64 11 128 22 142 25 14 2 109 3 212 3 164 -2 190 -4 205 -19z"/>
 <path d="M8790 682 c0 -10 129 -26 138 -17 10 9 -2 13 -70 20 -40 3 -68 2 -68 -3z"/>
 <path d="M8970 642 c0 -4 24 -15 53 -24 80 -25 127 -37 127 -32 0 8 -94 46 -125 50 -16 3 -36 7 -42 9 -7 2 -13 1 -13 -3z"/>
 <path d="M9314 591 c9 -13 66 -32 66 -21 0 12 -34 30 -55 30 -9 0 -14 -4 -11 -9z"/>
 <path d="M9040 555 c-10 -12 -7 -16 16 -25 32 -13 75 -10 74 5 -1 6 -10 9 -21 8 -10 -2 -19 1 -19 6 0 5 -10 7 -22 3 -14 -3 -19 -2 -14 6 10 17 1 15 -14 -3z"/>
 <path d="M9225 546 c17 -8 32 -12 34 -10 7 6 -2 11 -34 17 l-30 6 30 -13z"/>
 <path d="M9340 552 c0 -7 48 -32 62 -32 22 0 4 18 -27 27 -19 6 -35 8 -35 5z"/>
 <path d="M9365 410 c3 -5 16 -10 28 -9 21 0 21 1 2 9 -28 12 -37 12 -30 0z"/>
 <path d="M9334 375 c23 -17 50 -20 41 -5 -4 6 -11 8 -16 5 -5 -4 -9 -1 -9 4 0 6 -8 11 -17 11 -16 -1 -16 -2 1 -15z"/>
 <path d="M9610 345 c-10 -12 -10 -15 4 -15 9 0 16 7 16 15 0 8 -2 15 -4 15 -2 0 -9 -7 -16 -15z"/>
 <path d="M9555 320 c-3 -5 3 -10 15 -10 12 0 18 5 15 10 -3 6 -10 10 -15 10 -5 0 -12 -4 -15 -10z"/>
 <path d="M8228 673 c-16 -3 -28 -8 -28 -13 0 -4 15 -5 33 0 18 4 47 5 64 3 17 -3 33 -1 36 4 6 9 -58 13 -105 6z"/>
 <path d="M8080 621 c-50 -16 -103 -40 -90 -41 3 0 21 5 40 11 19 5 45 12 57 15 32 6 73 23 73 29 0 9 -22 5 -80 -14z"/>
 <path d="M7770 582 c-33 -14 -33 -16 -11 -20 13 -2 31 3 39 12 23 23 12 26 -28 8z"/>
 <path d="M7735 532 c-3 -7 -9 -10 -15 -7 -5 3 -10 1 -10 -4 0 -6 4 -11 8 -11 12 0 62 24 62 30 0 12 -40 5 -45 -8z"/>
 <path d="M7885 540 c-19 -8 -19 -9 2 -9 12 -1 25 4 28 9 7 12 -2 12 -30 0z"/>
 <path d="M8038 536 c3 -5 -4 -7 -15 -4 -12 3 -27 2 -34 -3 -23 -14 19 -23 59 -13 45 11 55 34 14 31 -17 -1 -28 -6 -24 -11z"/>
 <path d="M7519 494 c-23 -25 -23 -26 -2 -15 23 12 38 29 31 37 -3 2 -15 -8 -29 -22z"/>
 <path d="M7730 400 c-21 -7 -21 -8 -5 -9 11 0 27 4 35 9 18 11 5 11 -30 0z"/>
 <path d="M7768 374 c-32 -17 -34 -21 -13 -21 8 0 15 4 15 8 0 5 7 6 15 3 9 -4 15 0 15 10 0 19 2 19 -32 0z"/>
 <path d="M7536 312 c-9 -15 6 -22 37 -18 29 3 50 16 26 16 -8 0 -24 3 -35 6 -12 3 -25 1 -28 -4z"/>
 </g>
<g id="layer103" fill="#fc890d" stroke="none">
 <path d="M8078 5923 l-3 -2928 -37 -3 -38 -3 0 -890 0 -889 -1670 0 -1670 0 0 -93 c0 -87 2 -95 25 -115 l25 -22 1172 0 1172 0 -135 -68 c-208 -106 -279 -162 -279 -222 0 -33 16 -44 73 -53 41 -6 250 16 305 32 32 10 47 -3 15 -13 -22 -7 -118 -99 -156 -149 -15 -20 -33 -61 -39 -90 -10 -48 -9 -58 10 -98 28 -57 100 -102 208 -131 111 -29 387 -36 539 -14 61 9 142 20 180 26 39 6 111 20 160 31 79 19 129 32 285 77 35 10 116 39 240 84 65 24 65 24 115 6 161 -59 254 -91 285 -98 19 -4 64 -17 100 -28 92 -28 233 -60 315 -72 39 -6 120 -17 180 -26 152 -22 428 -15 539 14 108 29 180 74 208 131 19 40 20 50 10 98 -6 29 -24 70 -39 90 -38 50 -134 142 -155 149 -33 10 -18 23 15 13 54 -16 263 -38 304 -32 57 9 73 20 73 53 0 60 -71 116 -279 222 l-135 68 1145 0 1146 0 21 23 c19 20 22 35 22 115 l0 92 -1660 -2 c-913 -2 -1660 1 -1660 5 0 5 -9 6 -19 2 -18 -5 -20 -1 -19 42 0 26 0 427 -1 891 l-1 842 -35 0 -35 0 0 2930 0 2930 -410 0 -410 0 -2 -2927z m1011 -5223 c182 -19 296 -49 431 -112 80 -38 150 -124 150 -185 0 -46 -17 -93 -42 -113 -34 -28 -134 -26 -218 4 -36 13 -91 34 -123 45 -61 23 -140 60 -222 106 -27 16 -63 36 -80 45 -16 9 -46 26 -65 38 -19 12 -41 22 -49 22 -8 0 -35 9 -60 21 -116 54 -151 73 -152 86 -1 7 -2 19 -3 26 -1 6 15 15 34 18 57 10 298 9 399 -1z m-632 -22 c11 -12 13 -18 5 -18 -7 0 -11 -4 -7 -9 6 -10 -46 -51 -64 -51 -7 0 -33 -11 -59 -24 -26 -13 -60 -26 -76 -30 -17 -4 -73 -32 -125 -63 -171 -100 -219 -123 -352 -174 -108 -40 -142 -49 -196 -49 -58 0 -69 3 -89 26 -25 26 -31 40 -14 29 6 -3 10 -2 10 4 0 6 7 8 15 5 25 -10 17 12 -11 31 -21 14 -24 21 -18 43 4 15 10 45 13 67 5 31 15 46 50 73 31 24 51 32 67 28 16 -4 24 -1 26 10 5 25 139 72 266 93 64 11 128 22 142 25 14 2 109 3 212 3 164 -2 190 -4 205 -19z"/>
 <path d="M8790 682 c0 -10 129 -26 138 -17 10 9 -2 13 -70 20 -40 3 -68 2 -68 -3z"/>
 <path d="M8970 642 c0 -4 24 -15 53 -24 80 -25 127 -37 127 -32 0 8 -94 46 -125 50 -16 3 -36 7 -42 9 -7 2 -13 1 -13 -3z"/>
 <path d="M9314 591 c9 -13 66 -32 66 -21 0 12 -34 30 -55 30 -9 0 -14 -4 -11 -9z"/>
 <path d="M9040 555 c-10 -12 -7 -16 16 -25 32 -13 75 -10 74 5 -1 6 -10 9 -21 8 -10 -2 -19 1 -19 6 0 5 -10 7 -22 3 -14 -3 -19 -2 -14 6 10 17 1 15 -14 -3z"/>
 <path d="M9225 546 c17 -8 32 -12 34 -10 7 6 -2 11 -34 17 l-30 6 30 -13z"/>
 <path d="M9340 552 c0 -7 48 -32 62 -32 22 0 4 18 -27 27 -19 6 -35 8 -35 5z"/>
 <path d="M9365 410 c3 -5 16 -10 28 -9 21 0 21 1 2 9 -28 12 -37 12 -30 0z"/>
 <path d="M9334 375 c23 -17 50 -20 41 -5 -4 6 -11 8 -16 5 -5 -4 -9 -1 -9 4 0 6 -8 11 -17 11 -16 -1 -16 -2 1 -15z"/>
 <path d="M9610 345 c-10 -12 -10 -15 4 -15 9 0 16 7 16 15 0 8 -2 15 -4 15 -2 0 -9 -7 -16 -15z"/>
 <path d="M9555 320 c-3 -5 3 -10 15 -10 12 0 18 5 15 10 -3 6 -10 10 -15 10 -5 0 -12 -4 -15 -10z"/>
 <path d="M8228 673 c-16 -3 -28 -8 -28 -13 0 -4 15 -5 33 0 18 4 47 5 64 3 17 -3 33 -1 36 4 6 9 -58 13 -105 6z"/>
 <path d="M8080 621 c-50 -16 -103 -40 -90 -41 3 0 21 5 40 11 19 5 45 12 57 15 32 6 73 23 73 29 0 9 -22 5 -80 -14z"/>
 <path d="M7770 582 c-33 -14 -33 -16 -11 -20 13 -2 31 3 39 12 23 23 12 26 -28 8z"/>
 <path d="M7735 532 c-3 -7 -9 -10 -15 -7 -5 3 -10 1 -10 -4 0 -6 4 -11 8 -11 12 0 62 24 62 30 0 12 -40 5 -45 -8z"/>
 <path d="M7885 540 c-19 -8 -19 -9 2 -9 12 -1 25 4 28 9 7 12 -2 12 -30 0z"/>
 <path d="M8038 536 c3 -5 -4 -7 -15 -4 -12 3 -27 2 -34 -3 -23 -14 19 -23 59 -13 45 11 55 34 14 31 -17 -1 -28 -6 -24 -11z"/>
 <path d="M7519 494 c-23 -25 -23 -26 -2 -15 23 12 38 29 31 37 -3 2 -15 -8 -29 -22z"/>
 <path d="M7730 400 c-21 -7 -21 -8 -5 -9 11 0 27 4 35 9 18 11 5 11 -30 0z"/>
 <path d="M7768 374 c-32 -17 -34 -21 -13 -21 8 0 15 4 15 8 0 5 7 6 15 3 9 -4 15 0 15 10 0 19 2 19 -32 0z"/>
 <path d="M7536 312 c-9 -15 6 -22 37 -18 29 3 50 16 26 16 -8 0 -24 3 -35 6 -12 3 -25 1 -28 -4z"/>
 <path d="M11400 8453 c-8 -3 -25 -15 -37 -26 l-23 -20 0 -2644 0 -2643 215 0 215 0 0 2639 0 2640 -24 28 -24 28 -154 2 c-84 1 -160 -1 -168 -4z"/>
 </g>
<g id="layer104" fill="#5293d0" stroke="none">
 <path d="M11400 8453 c-8 -3 -25 -15 -37 -26 l-23 -20 0 -2644 0 -2643 215 0 215 0 0 2639 0 2640 -24 28 -24 28 -154 2 c-84 1 -160 -1 -168 -4z"/>
 <path d="M4660 1117 c0 -87 2 -95 25 -115 l25 -22 1189 0 1189 0 64 24 c105 40 238 72 538 132 157 31 292 60 300 65 9 5 -697 9 -1657 9 l-1673 0 0 -93z"/>
 <path d="M9031 1205 c3 -2 151 -34 330 -70 335 -67 376 -77 519 -126 l85 -29 1161 0 1161 0 21 23 c19 20 22 35 22 115 l0 92 -1652 0 c-908 0 -1649 -2 -1647 -5z"/>
 </g>
<g id="layer105" fill="#6f8bb2" stroke="none">
 <path d="M6173 1143 l-1513 -3 0 -59 c0 -57 2 -60 34 -80 33 -21 35 -21 1210 -21 l1176 0 118 39 c103 34 206 59 477 115 39 7 57 13 40 12 -16 0 -711 -2 -1542 -3z"/>
 <path d="M9498 1108 c197 -40 246 -52 382 -99 l85 -29 1157 0 1157 0 26 25 c21 22 25 35 25 83 l0 57 -1509 0 -1509 0 186 -37z"/>
 </g>

</svg>